Inknut Antiqua-Bold.ufo
<glyph name="numbersign" format="1">
  <advance width="780"/>
  <unicode hex="0023"/>
  <outline>
    <contour>
      <point x="415" y="552" type="line"/>
      <point x="109" y="22" type="line"/>
      <point x="159" y="-9" type="line"/>
      <point x="465" y="521" type="line"/>
    </contour>
    <contour>
      <point x="623" y="552" type="line"/>
      <point x="317" y="22" type="line"/>
      <point x="367" y="-9" type="line"/>
      <point x="673" y="521" type="line"/>
    </contour>
    <contour>
      <point x="762" y="415" type="line"/>
      <point x="186" y="415" type="line"/>
      <point x="137" y="330" type="line"/>
      <point x="713" y="330" type="line"/>
    </contour>
    <contour>
      <point x="643" y="210" type="line"/>
      <point x="67" y="210" type="line"/>
      <point x="18" y="125" type="line"/>
      <point x="594" y="125" type="line"/>
    </contour>
  </outline>
</glyph>
<glyph name="quotesingle" format="1">
  <advance width="409"/>
  <unicode hex="0027"/>
  <outline>
    <contour>
      <point x="271" y="786" type="line"/>
      <point x="60" y="697" type="line"/>
      <point x="60" y="626" type="line"/>
      <point x="212" y="353" type="line"/>
      <point x="312" y="353" type="line"/>
      <point x="349" y="786" type="line"/>
    </contour>
  </outline>
</glyph>
<glyph name="one" format="1">
  <advance width="514"/>
  <unicode hex="0031"/>
  <outline>
    <contour>
      <point x="60" y="71" type="line"/>
      <point x="60" y="0" type="line"/>
      <point x="434" y="0" type="line"/>
      <point x="474" y="80" type="line"/>
      <point x="166" y="154" type="line"/>
    </contour>
    <contour>
      <point x="157" y="557" type="line"/>
      <point x="157" y="0" type="line"/>
      <point x="357" y="0" type="line"/>
      <point x="357" y="530" type="line"/>
    </contour>
    <contour>
      <point x="454" y="512" type="line"/>
      <point x="454" y="583" type="line"/>
      <point x="80" y="583" type="line"/>
      <point x="40" y="503" type="line"/>
      <point x="348" y="429" type="line"/>
    </contour>
  </outline>
</glyph>
<glyph name="seven" format="1">
  <advance width="658"/>
  <unicode hex="0037"/>
  <outline>
    <contour>
      <point x="60" y="311" type="line"/>
      <point x="130" y="291" type="line"/>
      <point x="200" y="454" type="line"/>
      <point x="112" y="383" type="line"/>
      <point x="534" y="383" type="line"/>
      <point x="560" y="526" type="line"/>
      <point x="136" y="-228" type="line"/>
      <point x="217" y="-264" type="line"/>
      <point x="648" y="505" type="line"/>
      <point x="648" y="583" type="line"/>
      <point x="155" y="583" type="line"/>
      <point x="60" y="601" type="line"/>
    </contour>
  </outline>
</glyph>
<glyph name="greater" format="1">
  <advance width="494"/>
  <unicode hex="003E"/>
  <outline>
    <contour>
      <point x="30" y="467" type="line"/>
      <point x="311" y="259" type="line"/>
      <point x="322" y="302" type="line"/>
      <point x="48" y="118" type="line"/>
      <point x="90" y="64" type="line"/>
      <point x="464" y="315" type="line"/>
      <point x="153" y="548" type="line"/>
    </contour>
  </outline>
</glyph>
<glyph name="at" format="1">
  <advance width="1471"/>
  <unicode hex="0040"/>
  <outline>
    <contour>
      <point x="484" y="828"/>
      <point x="50" y="595"/>
      <point x="50" y="251" type="curve" smooth="yes"/>
      <point x="50" y="-58"/>
      <point x="256" y="-266"/>
      <point x="677" y="-264" type="curve"/>
      <point x="717" y="-184" type="line"/>
      <point x="403" y="-147"/>
      <point x="266" y="71"/>
      <point x="266" y="299" type="curve" smooth="yes"/>
      <point x="266" y="534"/>
      <point x="465" y="704"/>
      <point x="743" y="704" type="curve" smooth="yes"/>
      <point x="1064" y="704"/>
      <point x="1205" y="521"/>
      <point x="1205" y="319" type="curve" smooth="yes"/>
      <point x="1205" y="198"/>
      <point x="1126" y="120"/>
      <point x="963" y="92" type="curve"/>
      <point x="1015" y="0" type="line"/>
      <point x="1174" y="20"/>
      <point x="1421" y="165"/>
      <point x="1421" y="366" type="curve" smooth="yes"/>
      <point x="1421" y="633"/>
      <point x="1174" y="828"/>
      <point x="801" y="828" type="curve" smooth="yes"/>
    </contour>
    <contour>
      <point x="585" y="553"/>
      <point x="415" y="418"/>
      <point x="415" y="248" type="curve" smooth="yes"/>
      <point x="415" y="104"/>
      <point x="511" y="-10"/>
      <point x="645" y="-10" type="curve" smooth="yes"/>
      <point x="667" y="-10"/>
      <point x="694" y="-9"/>
      <point x="722" y="-2" type="curve"/>
      <point x="899" y="138" type="line"/>
      <point x="868" y="207" type="line"/>
      <point x="820" y="170"/>
      <point x="769" y="155"/>
      <point x="716" y="155" type="curve" smooth="yes"/>
      <point x="656" y="155"/>
      <point x="625" y="219"/>
      <point x="625" y="296" type="curve" smooth="yes"/>
      <point x="625" y="374"/>
      <point x="650" y="419"/>
      <point x="698" y="419" type="curve" smooth="yes"/>
      <point x="777" y="419"/>
      <point x="816" y="373"/>
      <point x="816" y="323" type="curve"/>
      <point x="996" y="295" type="line"/>
      <point x="996" y="438"/>
      <point x="881" y="553"/>
      <point x="716" y="553" type="curve" smooth="yes"/>
    </contour>
    <contour>
      <point x="937" y="553" type="line"/>
      <point x="815" y="451" type="line"/>
      <point x="815" y="0" type="line"/>
      <point x="1015" y="0" type="line"/>
      <point x="1015" y="553" type="line"/>
    </contour>
  </outline>
</glyph>
<glyph name="C" format="1">
  <advance width="847"/>
  <unicode hex="0043"/>
  <outline>
    <contour>
      <point x="325" y="806"/>
      <point x="50" y="623"/>
      <point x="50" y="375" type="curve" smooth="yes"/>
      <point x="50" y="146"/>
      <point x="210" y="-20"/>
      <point x="447" y="-20" type="curve" smooth="yes"/>
      <point x="501" y="-20"/>
      <point x="562" y="-18"/>
      <point x="633" y="2" type="curve"/>
      <point x="817" y="145" type="line"/>
      <point x="771" y="219" type="line"/>
      <point x="641" y="156"/>
      <point x="559" y="135"/>
      <point x="505" y="135" type="curve" smooth="yes"/>
      <point x="354" y="134"/>
      <point x="285" y="269"/>
      <point x="285" y="423" type="curve" smooth="yes"/>
      <point x="285" y="566"/>
      <point x="364" y="672"/>
      <point x="462" y="672" type="curve" smooth="yes"/>
      <point x="535" y="672"/>
      <point x="605" y="634"/>
      <point x="656" y="535" type="curve"/>
      <point x="784" y="535" type="line"/>
      <point x="784" y="759" type="line"/>
      <point x="734" y="782"/>
      <point x="603" y="806"/>
      <point x="520" y="806" type="curve" smooth="yes"/>
    </contour>
    <contour>
      <point x="455" y="786" type="move" name="top"/>
    </contour>
    <contour>
      <point x="450" y="0" type="move" name="bottom"/>
    </contour>
  </outline>
</glyph>
<glyph name="D" format="1">
  <advance width="939"/>
  <unicode hex="0044"/>
  <outline>
    <contour>
      <point x="40" y="71" type="line"/>
      <point x="40" y="0" type="line"/>
      <point x="271" y="0" type="line"/>
      <point x="291" y="80" type="line"/>
      <point x="146" y="154" type="line"/>
    </contour>
    <contour>
      <point x="134" y="786" type="line"/>
      <point x="134" y="0" type="line"/>
      <point x="349" y="0" type="line"/>
      <point x="349" y="786" type="line"/>
    </contour>
    <contour>
      <point x="273" y="575" type="line"/>
      <point x="296" y="647"/>
      <point x="351" y="692"/>
      <point x="412" y="692" type="curve" smooth="yes"/>
      <point x="579" y="692"/>
      <point x="654" y="539"/>
      <point x="654" y="363" type="curve" smooth="yes"/>
      <point x="654" y="208"/>
      <point x="563" y="94"/>
      <point x="447" y="94" type="curve" smooth="yes"/>
      <point x="366" y="94"/>
      <point x="312" y="119"/>
      <point x="275" y="157" type="curve"/>
      <point x="217" y="0" type="line"/>
      <point x="316" y="0"/>
      <point x="340" y="-10"/>
      <point x="419" y="-10" type="curve" smooth="yes"/>
      <point x="614" y="-10"/>
      <point x="889" y="169"/>
      <point x="889" y="410" type="curve" smooth="yes"/>
      <point x="889" y="633"/>
      <point x="730" y="796"/>
      <point x="490" y="796" type="curve" smooth="yes"/>
      <point x="409" y="796"/>
      <point x="362" y="786"/>
      <point x="216" y="786" type="curve"/>
    </contour>
    <contour>
      <point x="300" y="715" type="line"/>
      <point x="300" y="786" type="line"/>
      <point x="60" y="786" type="line"/>
      <point x="20" y="706" type="line"/>
      <point x="166" y="662" type="line"/>
    </contour>
    <contour>
      <point x="425" y="786" type="move" name="top"/>
    </contour>
    <contour>
      <point x="269" y="436" type="move" name="centre"/>
    </contour>
  </outline>
</glyph>
<glyph name="J" format="1">
  <advance width="444"/>
  <unicode hex="004A"/>
  <outline>
    <contour>
      <point x="114" y="786" type="line"/>
      <point x="114" y="41" type="line" smooth="yes"/>
      <point x="114" y="-57"/>
      <point x="93" y="-109"/>
      <point x="13" y="-204" type="curve"/>
      <point x="91" y="-264" type="line"/>
      <point x="338" y="-20" type="line"/>
      <point x="333" y="-4"/>
      <point x="329" y="45"/>
      <point x="329" y="99" type="curve" smooth="yes"/>
      <point x="329" y="786" type="line"/>
    </contour>
    <contour>
      <point x="20" y="786" type="line"/>
      <point x="-20" y="706" type="line"/>
      <point x="318" y="632" type="line"/>
      <point x="424" y="715" type="line"/>
      <point x="424" y="786" type="line"/>
    </contour>
    <contour>
      <point x="227" y="786" type="move" name="top"/>
    </contour>
  </outline>
</glyph>
<glyph name="L" format="1">
  <advance width="804"/>
  <unicode hex="004C"/>
  <outline>
    <contour>
      <point x="40" y="71" type="line"/>
      <point x="40" y="0" type="line"/>
      <point x="181" y="0" type="line"/>
      <point x="201" y="80" type="line"/>
      <point x="146" y="154" type="line"/>
    </contour>
    <contour>
      <point x="134" y="786" type="line"/>
      <point x="134" y="0" type="line"/>
      <point x="349" y="0" type="line"/>
      <point x="349" y="786" type="line"/>
    </contour>
    <contour>
      <point x="444" y="715" type="line"/>
      <point x="444" y="786" type="line"/>
      <point x="60" y="786" type="line"/>
      <point x="20" y="706" type="line"/>
      <point x="338" y="632" type="line"/>
    </contour>
    <contour>
      <point x="776" y="95" type="line"/>
      <point x="198" y="95" type="line"/>
      <point x="198" y="0" type="line"/>
      <point x="776" y="0" type="line"/>
    </contour>
    <contour>
      <point x="784" y="-18" type="line"/>
      <point x="784" y="292" type="line"/>
      <point x="714" y="322" type="line"/>
      <point x="535" y="67" type="line"/>
      <point x="669" y="7" type="line"/>
    </contour>
    <contour>
      <point x="254" y="786" type="move" name="top"/>
    </contour>
    <contour>
      <point x="422" y="0" type="move" name="bottom"/>
    </contour>
    <contour>
      <point x="509" y="456" type="move" name="topright"/>
    </contour>
  </outline>
</glyph>
<glyph name="N" format="1">
  <advance width="914"/>
  <unicode hex="004E"/>
  <outline>
    <contour>
      <point x="40" y="71" type="line"/>
      <point x="40" y="0" type="line"/>
      <point x="364" y="0" type="line"/>
      <point x="404" y="80" type="line"/>
      <point x="146" y="164" type="line"/>
    </contour>
    <contour>
      <point x="134" y="786" type="line"/>
      <point x="134" y="0" type="line"/>
      <point x="239" y="0" type="line"/>
      <point x="239" y="786" type="line"/>
    </contour>
    <contour>
      <point x="176" y="786" type="line"/>
      <point x="60" y="786" type="line"/>
      <point x="20" y="706" type="line"/>
      <point x="168" y="622" type="line"/>
    </contour>
    <contour>
      <point x="704" y="720" type="line"/>
      <point x="704" y="0" type="line"/>
      <point x="809" y="0" type="line"/>
      <point x="809" y="693" type="line"/>
    </contour>
    <contour>
      <point x="904" y="715" type="line"/>
      <point x="904" y="786" type="line"/>
      <point x="580" y="786" type="line"/>
      <point x="540" y="706" type="line"/>
      <point x="798" y="622" type="line"/>
    </contour>
    <contour>
      <point x="216" y="520" type="line"/>
      <point x="704" y="0" type="line"/>
      <point x="731" y="276" type="line"/>
      <point x="251" y="786" type="line"/>
      <point x="178" y="786" type="line"/>
    </contour>
    <contour>
      <point x="462" y="786" type="move" name="top"/>
    </contour>
    <contour>
      <point x="462" y="0" type="move" name="bottom"/>
    </contour>
  </outline>
</glyph>
<glyph name="R" format="1">
  <advance width="870"/>
  <unicode hex="0052"/>
  <outline>
    <contour>
      <point x="435" y="796"/>
      <point x="392" y="786"/>
      <point x="256" y="786" type="curve"/>
      <point x="273" y="565" type="line"/>
      <point x="305" y="643"/>
      <point x="357" y="692"/>
      <point x="422" y="692" type="curve" smooth="yes"/>
      <point x="512" y="692"/>
      <point x="554" y="630"/>
      <point x="554" y="548" type="curve" smooth="yes"/>
      <point x="554" y="468"/>
      <point x="517" y="424"/>
      <point x="457" y="424" type="curve" smooth="yes"/>
      <point x="416" y="424" type="line"/>
      <point x="386" y="364" type="line"/>
      <point x="428" y="340" type="line"/>
      <point x="588" y="338"/>
      <point x="789" y="447"/>
      <point x="789" y="585" type="curve" smooth="yes"/>
      <point x="789" y="705"/>
      <point x="678" y="796"/>
      <point x="510" y="796" type="curve" smooth="yes"/>
    </contour>
    <contour>
      <point x="40" y="71" type="line"/>
      <point x="40" y="0" type="line"/>
      <point x="424" y="0" type="line"/>
      <point x="464" y="80" type="line"/>
      <point x="146" y="164" type="line"/>
    </contour>
    <contour>
      <point x="134" y="786" type="line"/>
      <point x="134" y="0" type="line"/>
      <point x="349" y="0" type="line"/>
      <point x="349" y="786" type="line"/>
    </contour>
    <contour>
      <point x="428" y="340" type="line"/>
      <point x="604" y="0" type="line"/>
      <point x="840" y="0" type="line"/>
      <point x="880" y="80" type="line"/>
      <point x="717" y="154" type="line"/>
      <point x="806" y="83" type="line"/>
      <point x="670" y="344" type="line"/>
      <point x="455" y="401" type="line"/>
    </contour>
    <contour>
      <point x="60" y="786" type="line"/>
      <point x="20" y="706" type="line"/>
      <point x="338" y="622" type="line"/>
      <point x="320" y="715" type="line"/>
      <point x="320" y="786" type="line"/>
    </contour>
    <contour>
      <point x="420" y="786" type="move" name="top"/>
    </contour>
    <contour>
      <point x="470" y="0" type="move" name="bottom"/>
    </contour>
  </outline>
</glyph>
<glyph name="T" format="1">
  <advance width="852"/>
  <unicode hex="0054"/>
  <outline>
    <contour>
      <point x="317" y="786" type="line"/>
      <point x="317" y="0" type="line"/>
      <point x="532" y="0" type="line"/>
      <point x="532" y="786" type="line"/>
    </contour>
    <contour>
      <point x="223" y="71" type="line"/>
      <point x="223" y="0" type="line"/>
      <point x="607" y="0" type="line"/>
      <point x="647" y="80" type="line"/>
      <point x="329" y="154" type="line"/>
    </contour>
    <contour>
      <point x="30" y="514" type="line"/>
      <point x="100" y="484" type="line"/>
      <point x="263" y="716" type="line"/>
      <point x="145" y="779" type="line"/>
      <point x="30" y="804" type="line"/>
    </contour>
    <contour>
      <point x="38" y="786" type="line"/>
      <point x="38" y="691" type="line"/>
      <point x="426" y="691" type="line"/>
      <point x="426" y="786" type="line"/>
    </contour>
    <contour>
      <point x="426" y="786" type="line"/>
      <point x="426" y="691" type="line"/>
      <point x="814" y="691" type="line"/>
      <point x="814" y="786" type="line"/>
    </contour>
    <contour>
      <point x="707" y="779" type="line"/>
      <point x="589" y="716" type="line"/>
      <point x="752" y="484" type="line"/>
      <point x="822" y="514" type="line"/>
      <point x="822" y="804" type="line"/>
    </contour>
    <contour>
      <point x="426" y="393" type="move" name="center"/>
    </contour>
    <contour>
      <point x="416" y="0" type="move" name="bottom"/>
    </contour>
    <contour>
      <point x="426" y="786" type="move" name="top"/>
    </contour>
  </outline>
</glyph>
<glyph name="X" format="1">
  <advance width="893"/>
  <unicode hex="0058"/>
  <outline>
    <contour>
      <point x="352" y="351" type="line"/>
      <point x="553" y="419" type="line"/>
      <point x="324" y="681" type="line"/>
      <point x="16" y="728" type="line"/>
    </contour>
    <contour>
      <point x="40" y="786" type="line"/>
      <point x="0" y="706" type="line"/>
      <point x="185" y="600" type="line"/>
      <point x="414" y="715" type="line"/>
      <point x="414" y="786" type="line"/>
    </contour>
    <contour>
      <point x="647" y="681" type="line"/>
      <point x="381" y="398" type="line"/>
      <point x="536" y="402" type="line"/>
      <point x="833" y="715" type="line"/>
    </contour>
    <contour>
      <point x="539" y="786" type="line"/>
      <point x="499" y="706" type="line"/>
      <point x="697" y="592" type="line"/>
      <point x="873" y="715" type="line"/>
      <point x="873" y="786" type="line"/>
    </contour>
    <contour>
      <point x="541" y="435" type="line"/>
      <point x="340" y="367" type="line"/>
      <point x="569" y="105" type="line"/>
      <point x="877" y="58" type="line"/>
    </contour>
    <contour>
      <point x="853" y="0" type="line"/>
      <point x="893" y="80" type="line"/>
      <point x="668" y="186" type="line"/>
      <point x="479" y="71" type="line"/>
      <point x="479" y="0" type="line"/>
    </contour>
    <contour>
      <point x="226" y="105" type="line"/>
      <point x="512" y="388" type="line"/>
      <point x="355" y="384" type="line"/>
      <point x="38" y="71" type="line"/>
    </contour>
    <contour>
      <point x="334" y="0" type="line"/>
      <point x="374" y="80" type="line"/>
      <point x="176" y="194" type="line"/>
      <point x="0" y="71" type="line"/>
      <point x="0" y="0" type="line"/>
    </contour>
  </outline>
</glyph>
<glyph name="Y" format="1">
  <advance width="873"/>
  <unicode hex="0059"/>
  <outline>
    <contour>
      <point x="342" y="241" type="line"/>
      <point x="529" y="329" type="line"/>
      <point x="298" y="681" type="line"/>
      <point x="26" y="728" type="line"/>
    </contour>
    <contour>
      <point x="10" y="786" type="line"/>
      <point x="-10" y="706" type="line"/>
      <point x="225" y="600" type="line"/>
      <point x="374" y="715" type="line"/>
      <point x="374" y="786" type="line"/>
    </contour>
    <contour>
      <point x="673" y="681" type="line"/>
      <point x="386" y="288" type="line"/>
      <point x="488" y="246" type="line"/>
      <point x="823" y="715" type="line"/>
    </contour>
    <contour>
      <point x="539" y="786" type="line"/>
      <point x="499" y="706" type="line"/>
      <point x="717" y="592" type="line"/>
      <point x="873" y="715" type="line"/>
      <point x="873" y="786" type="line"/>
    </contour>
    <contour>
      <point x="242" y="71" type="line"/>
      <point x="242" y="0" type="line"/>
      <point x="616" y="0" type="line"/>
      <point x="656" y="80" type="line"/>
      <point x="348" y="154" type="line"/>
    </contour>
    <contour>
      <point x="336" y="357" type="line"/>
      <point x="336" y="0" type="line"/>
      <point x="541" y="0" type="line"/>
      <point x="541" y="370" type="line"/>
    </contour>
    <contour>
      <point x="442" y="786" type="move" name="top"/>
    </contour>
  </outline>
</glyph>
<glyph name="h" format="1">
  <advance width="739"/>
  <unicode hex="0068"/>
  <outline>
    <contour>
      <point x="441" y="553"/>
      <point x="418" y="550"/>
      <point x="401" y="545" type="curve"/>
      <point x="264" y="435" type="line"/>
      <point x="294" y="362" type="line"/>
      <point x="329" y="382"/>
      <point x="363" y="388"/>
      <point x="388" y="388" type="curve" smooth="yes"/>
      <point x="430" y="388"/>
      <point x="444" y="366"/>
      <point x="444" y="309" type="curve" smooth="yes"/>
      <point x="444" y="0" type="line"/>
      <point x="644" y="0" type="line"/>
      <point x="644" y="399" type="line" smooth="yes"/>
      <point x="644" y="493"/>
      <point x="575" y="553"/>
      <point x="466" y="553" type="curve" smooth="yes"/>
    </contour>
    <contour>
      <point x="455" y="71" type="line"/>
      <point x="455" y="0" type="line"/>
      <point x="694" y="0" type="line"/>
      <point x="734" y="80" type="line"/>
      <point x="461" y="164" type="line"/>
    </contour>
    <component base="l"/>
    <contour>
      <point x="350" y="873" type="move" name="top"/>
    </contour>
    <contour>
      <point x="223" y="658" type="move" name="centre"/>
    </contour>
  </outline>
</glyph>
<glyph name="k" format="1">
  <advance width="759"/>
  <unicode hex="006B"/>
  <outline>
    <contour>
      <point x="727" y="472" type="line"/>
      <point x="727" y="543" type="line"/>
      <point x="408" y="543" type="line"/>
      <point x="368" y="463" type="line"/>
      <point x="535" y="385" type="line"/>
      <point x="617" y="486" type="line"/>
      <point x="337" y="270" type="line"/>
      <point x="485" y="0" type="line"/>
      <point x="714" y="0" type="line"/>
      <point x="754" y="80" type="line"/>
      <point x="561" y="154" type="line"/>
      <point x="697" y="43" type="line"/>
      <point x="523" y="340" type="line"/>
      <point x="507" y="296" type="line"/>
    </contour>
    <component base="l"/>
    <contour>
      <point x="405" y="0" type="move" name="bottom"/>
    </contour>
  </outline>
</glyph>
<glyph name="l" format="1">
  <advance width="399"/>
  <unicode hex="006C"/>
  <outline>
    <contour>
      <point x="104" y="779" type="line"/>
      <point x="104" y="0" type="line"/>
      <point x="304" y="0" type="line"/>
      <point x="304" y="873" type="line"/>
    </contour>
    <contour>
      <point x="15" y="71" type="line"/>
      <point x="15" y="0" type="line"/>
      <point x="354" y="0" type="line"/>
      <point x="394" y="80" type="line"/>
      <point x="121" y="164" type="line"/>
    </contour>
    <contour>
      <point x="226" y="873" type="line"/>
      <point x="15" y="784" type="line"/>
      <point x="15" y="713" type="line"/>
      <point x="267" y="548" type="line"/>
      <point x="304" y="873" type="line"/>
    </contour>
    <contour>
      <point x="200" y="823" type="move" name="top"/>
    </contour>
    <contour>
      <point x="200" y="0" type="move" name="bottom"/>
    </contour>
    <contour>
      <point x="344" y="543" type="move" name="topright"/>
    </contour>
  </outline>
</glyph>
<glyph name="m" format="1">
  <advance width="1059"/>
  <unicode hex="006D"/>
  <outline>
    <contour>
      <point x="455" y="553"/>
      <point x="435" y="550"/>
      <point x="421" y="545" type="curve"/>
      <point x="284" y="435" type="line"/>
      <point x="314" y="362" type="line"/>
      <point x="345" y="382"/>
      <point x="376" y="388"/>
      <point x="398" y="388" type="curve" smooth="yes"/>
      <point x="433" y="388"/>
      <point x="444" y="372"/>
      <point x="444" y="329" type="curve" smooth="yes"/>
      <point x="444" y="0" type="line"/>
      <point x="644" y="0" type="line"/>
      <point x="644" y="399" type="line" smooth="yes"/>
      <point x="644" y="493"/>
      <point x="579" y="553"/>
      <point x="476" y="553" type="curve" smooth="yes"/>
    </contour>
    <contour>
      <point x="35" y="71" type="line"/>
      <point x="35" y="0" type="line"/>
      <point x="364" y="0" type="line"/>
      <point x="404" y="80" type="line"/>
      <point x="141" y="164" type="line"/>
    </contour>
    <contour>
      <point x="124" y="468" type="line"/>
      <point x="124" y="0" type="line"/>
      <point x="324" y="0" type="line"/>
      <point x="324" y="411" type="line"/>
    </contour>
    <contour>
      <point x="455" y="71" type="line"/>
      <point x="455" y="0" type="line"/>
      <point x="684" y="0" type="line"/>
      <point x="724" y="80" type="line"/>
      <point x="461" y="164" type="line"/>
    </contour>
    <contour>
      <point x="35" y="473" type="line"/>
      <point x="35" y="402" type="line"/>
      <point x="287" y="237" type="line"/>
      <point x="324" y="411" type="line"/>
      <point x="266" y="562" type="line"/>
    </contour>
    <contour>
      <point x="775" y="553"/>
      <point x="755" y="550"/>
      <point x="741" y="545" type="curve"/>
      <point x="604" y="435" type="line"/>
      <point x="634" y="362" type="line"/>
      <point x="665" y="382"/>
      <point x="696" y="388"/>
      <point x="718" y="388" type="curve" smooth="yes"/>
      <point x="753" y="388"/>
      <point x="764" y="372"/>
      <point x="764" y="329" type="curve" smooth="yes"/>
      <point x="764" y="0" type="line"/>
      <point x="964" y="0" type="line"/>
      <point x="964" y="399" type="line" smooth="yes"/>
      <point x="964" y="493"/>
      <point x="899" y="553"/>
      <point x="796" y="553" type="curve" smooth="yes"/>
    </contour>
    <contour>
      <point x="775" y="71" type="line"/>
      <point x="775" y="0" type="line"/>
      <point x="1014" y="0" type="line"/>
      <point x="1054" y="80" type="line"/>
      <point x="781" y="164" type="line"/>
    </contour>
  </outline>
</glyph>
<glyph name="r" format="1">
  <advance width="599"/>
  <unicode hex="0072"/>
  <outline>
    <contour>
      <point x="35" y="473" type="line"/>
      <point x="35" y="402" type="line"/>
      <point x="287" y="237" type="line"/>
      <point x="324" y="411" type="line"/>
      <point x="266" y="562" type="line"/>
    </contour>
    <contour>
      <point x="35" y="71" type="line"/>
      <point x="35" y="0" type="line"/>
      <point x="444" y="0" type="line"/>
      <point x="484" y="80" type="line"/>
      <point x="141" y="164" type="line"/>
    </contour>
    <contour>
      <point x="419" y="553"/>
      <point x="402" y="550"/>
      <point x="391" y="545" type="curve"/>
      <point x="284" y="435" type="line"/>
      <point x="314" y="362" type="line"/>
      <point x="337" y="382"/>
      <point x="362" y="388"/>
      <point x="378" y="388" type="curve" smooth="yes"/>
      <point x="405" y="388"/>
      <point x="414" y="366"/>
      <point x="414" y="309" type="curve"/>
      <point x="492" y="309" type="line"/>
      <point x="605" y="451" type="line"/>
      <point x="584" y="515"/>
      <point x="523" y="553"/>
      <point x="436" y="553" type="curve" smooth="yes"/>
    </contour>
    <contour>
      <point x="124" y="0" type="line"/>
      <point x="324" y="0" type="line"/>
      <point x="324" y="411" type="line"/>
      <point x="124" y="468" type="line"/>
    </contour>
    <contour>
      <point x="330" y="543" type="move" name="top"/>
    </contour>
    <contour>
      <point x="228" y="0" type="move" name="bottom"/>
    </contour>
  </outline>
</glyph>
<glyph name="t" format="1">
  <advance width="515"/>
  <unicode hex="0074"/>
  <outline>
    <contour>
      <point x="108" y="168" type="line" smooth="yes"/>
      <point x="108" y="47"/>
      <point x="168" y="-10"/>
      <point x="308" y="-10" type="curve" smooth="yes"/>
      <point x="335" y="-10"/>
      <point x="368" y="-9"/>
      <point x="404" y="-2" type="curve"/>
      <point x="505" y="78" type="line"/>
      <point x="475" y="146" type="line"/>
      <point x="435" y="130"/>
      <point x="413" y="125"/>
      <point x="386" y="125" type="curve" smooth="yes"/>
      <point x="336" y="125"/>
      <point x="308" y="143"/>
      <point x="308" y="186" type="curve" smooth="yes"/>
      <point x="308" y="734" type="line"/>
      <point x="230" y="734" type="line"/>
      <point x="108" y="566" type="line"/>
    </contour>
    <contour>
      <point x="488" y="513" type="line"/>
      <point x="209" y="513" type="line"/>
      <point x="230" y="734" type="line"/>
      <point x="0" y="493" type="line"/>
      <point x="0" y="432" type="line"/>
      <point x="488" y="432" type="line"/>
    </contour>
    <contour>
      <point x="348" y="543" type="move" name="topright"/>
    </contour>
    <contour>
      <point x="292" y="0" type="move" name="bottom"/>
    </contour>
    <contour>
      <point x="244" y="376" type="move" name="centre"/>
    </contour>
  </outline>
</glyph>
<glyph name="u" format="1">
  <advance width="730"/>
  <unicode hex="0075"/>
  <outline>
    <contour>
      <point x="95" y="457" type="line"/>
      <point x="95" y="143" type="line" smooth="yes"/>
      <point x="95" y="49"/>
      <point x="164" y="-11"/>
      <point x="273" y="-11" type="curve" smooth="yes"/>
      <point x="298" y="-11"/>
      <point x="321" y="-8"/>
      <point x="338" y="-3" type="curve"/>
      <point x="475" y="107" type="line"/>
      <point x="445" y="180" type="line"/>
      <point x="410" y="160"/>
      <point x="376" y="154"/>
      <point x="351" y="154" type="curve" smooth="yes"/>
      <point x="309" y="154"/>
      <point x="295" y="176"/>
      <point x="295" y="233" type="curve" smooth="yes"/>
      <point x="295" y="553" type="line"/>
    </contour>
    <contour>
      <point x="217" y="553" type="line"/>
      <point x="6" y="464" type="line"/>
      <point x="6" y="393" type="line"/>
      <point x="258" y="248" type="line"/>
      <point x="295" y="411" type="line"/>
      <point x="295" y="553" type="line"/>
    </contour>
    <contour>
      <point x="446" y="81" type="line"/>
      <point x="446" y="0" type="line"/>
      <point x="685" y="0" type="line"/>
      <point x="725" y="80" type="line"/>
      <point x="452" y="164" type="line"/>
    </contour>
    <contour>
      <point x="435" y="443" type="line"/>
      <point x="435" y="0" type="line"/>
      <point x="635" y="0" type="line"/>
      <point x="635" y="553" type="line"/>
    </contour>
    <contour>
      <point x="557" y="553" type="line"/>
      <point x="346" y="464" type="line"/>
      <point x="346" y="393" type="line"/>
      <point x="598" y="248" type="line"/>
      <point x="635" y="413" type="line"/>
      <point x="635" y="553" type="line"/>
    </contour>
    <contour>
      <point x="685" y="0" type="move" name="ogonek"/>
    </contour>
    <contour>
      <point x="375" y="543" type="move" name="top"/>
    </contour>
  </outline>
</glyph>
<glyph name="braceleft" format="1">
  <advance width="496"/>
  <unicode hex="007B"/>
  <outline>
    <contour>
      <point x="272" y="903"/>
      <point x="185" y="809"/>
      <point x="185" y="701" type="curve" smooth="yes"/>
      <point x="185" y="573" type="line" smooth="yes"/>
      <point x="185" y="475"/>
      <point x="150" y="422"/>
      <point x="92" y="422" type="curve" smooth="yes"/>
      <point x="40" y="422" type="line"/>
      <point x="40" y="335" type="line"/>
      <point x="74" y="343" type="line"/>
      <point x="209" y="343"/>
      <point x="385" y="465"/>
      <point x="385" y="621" type="curve" smooth="yes"/>
      <point x="385" y="764" type="line" smooth="yes"/>
      <point x="385" y="822"/>
      <point x="401" y="859"/>
      <point x="436" y="875" type="curve"/>
      <point x="392" y="954" type="line"/>
    </contour>
    <contour>
      <point x="40" y="409" type="line"/>
      <point x="40" y="322" type="line"/>
      <point x="92" y="322" type="line" smooth="yes"/>
      <point x="150" y="322"/>
      <point x="185" y="269"/>
      <point x="185" y="171" type="curve" smooth="yes"/>
      <point x="185" y="43" type="line" smooth="yes"/>
      <point x="185" y="-65"/>
      <point x="272" y="-159"/>
      <point x="392" y="-210" type="curve"/>
      <point x="436" y="-131" type="line"/>
      <point x="401" y="-115"/>
      <point x="385" y="-78"/>
      <point x="385" y="-20" type="curve" smooth="yes"/>
      <point x="385" y="123" type="line" smooth="yes"/>
      <point x="385" y="279"/>
      <point x="209" y="401"/>
      <point x="74" y="401" type="curve"/>
    </contour>
  </outline>
</glyph>
<glyph name="asciitilde" format="1">
  <advance width="675"/>
  <unicode hex="007E"/>
  <outline>
    <contour>
      <point x="135" y="471"/>
      <point x="60" y="371"/>
      <point x="20" y="265" type="curve"/>
      <point x="90" y="217" type="line"/>
      <point x="118" y="255"/>
      <point x="153" y="284"/>
      <point x="185" y="284" type="curve" smooth="yes"/>
      <point x="259" y="284"/>
      <point x="366" y="160"/>
      <point x="473" y="160" type="curve" smooth="yes"/>
      <point x="540" y="160"/>
      <point x="615" y="260"/>
      <point x="655" y="366" type="curve"/>
      <point x="585" y="414" type="line"/>
      <point x="557" y="376"/>
      <point x="522" y="347"/>
      <point x="490" y="347" type="curve" smooth="yes"/>
      <point x="416" y="347"/>
      <point x="309" y="471"/>
      <point x="202" y="471" type="curve" smooth="yes"/>
    </contour>
  </outline>
</glyph>
<glyph name="exclamdown" format="1">
  <advance width="332"/>
  <unicode hex="00A1"/>
  <outline>
    <contour>
      <point x="95" y="245" type="line"/>
      <point x="31" y="-254" type="line"/>
      <point x="109" y="-254" type="line"/>
      <point x="302" y="-176" type="line"/>
      <point x="302" y="-105" type="line"/>
      <point x="225" y="245" type="line"/>
    </contour>
    <component base="period" yOffset="333"/>
  </outline>
</glyph>
<glyph name="brokenbar" format="1">
  <advance width="373"/>
  <unicode hex="00A6"/>
  <outline>
    <contour>
      <point x="134" y="986" type="line"/>
      <point x="134" y="523" type="line"/>
      <point x="239" y="523" type="line"/>
      <point x="239" y="986" type="line"/>
    </contour>
    <contour>
      <point x="134" y="263" type="line"/>
      <point x="134" y="-200" type="line"/>
      <point x="239" y="-200" type="line"/>
      <point x="239" y="263" type="line"/>
    </contour>
  </outline>
</glyph>
<glyph name="copyright" format="1">
  <advance width="1079"/>
  <unicode hex="00A9"/>
  <outline>
    <contour>
      <point x="368" y="806"/>
      <point x="70" y="623"/>
      <point x="70" y="375" type="curve" smooth="yes"/>
      <point x="70" y="146"/>
      <point x="242" y="-20"/>
      <point x="504" y="-20" type="curve" smooth="yes"/>
      <point x="711" y="-20"/>
      <point x="1009" y="163"/>
      <point x="1009" y="410" type="curve" smooth="yes"/>
      <point x="1009" y="639"/>
      <point x="838" y="806"/>
      <point x="575" y="806" type="curve" smooth="yes"/>
    </contour>
    <contour>
      <point x="443" y="609"/>
      <point x="303" y="506"/>
      <point x="303" y="380" type="curve" smooth="yes"/>
      <point x="303" y="272"/>
      <point x="387" y="186"/>
      <point x="503" y="186" type="curve" smooth="yes"/>
      <point x="547" y="186"/>
      <point x="599" y="188"/>
      <point x="656" y="205" type="curve"/>
      <point x="743" y="275" type="line"/>
      <point x="713" y="343" type="line"/>
      <point x="640" y="319"/>
      <point x="592" y="311"/>
      <point x="561" y="311" type="curve" smooth="yes"/>
      <point x="510" y="311"/>
      <point x="483" y="364"/>
      <point x="483" y="428" type="curve" smooth="yes"/>
      <point x="483" y="472"/>
      <point x="501" y="495"/>
      <point x="529" y="495" type="curve" smooth="yes"/>
      <point x="570" y="495"/>
      <point x="612" y="462"/>
      <point x="640" y="408" type="curve"/>
      <point x="718" y="408" type="line"/>
      <point x="718" y="572" type="line"/>
      <point x="688" y="590"/>
      <point x="607" y="609"/>
      <point x="554" y="609" type="curve" smooth="yes"/>
    </contour>
    <contour>
      <point x="742" y="682"/>
      <point x="844" y="534"/>
      <point x="844" y="363" type="curve" smooth="yes"/>
      <point x="844" y="214"/>
      <point x="712" y="104"/>
      <point x="562" y="104" type="curve" smooth="yes"/>
      <point x="337" y="104"/>
      <point x="235" y="254"/>
      <point x="235" y="423" type="curve" smooth="yes"/>
      <point x="235" y="572"/>
      <point x="367" y="682"/>
      <point x="517" y="682" type="curve" smooth="yes"/>
    </contour>
  </outline>
</glyph>
<glyph name="registered" format="1">
  <advance width="1039"/>
  <unicode hex="00AE"/>
  <outline>
    <contour>
      <point x="540" y="607"/>
      <point x="520" y="601"/>
      <point x="452" y="601" type="curve"/>
      <point x="469" y="480" type="line"/>
      <point x="479" y="516"/>
      <point x="490" y="537"/>
      <point x="508" y="537" type="curve" smooth="yes"/>
      <point x="542" y="537"/>
      <point x="560" y="513"/>
      <point x="560" y="483" type="curve" smooth="yes"/>
      <point x="560" y="443"/>
      <point x="548" y="424"/>
      <point x="523" y="424" type="curve" smooth="yes"/>
      <point x="504" y="424"/>
      <point x="488" y="429"/>
      <point x="481" y="437" type="curve"/>
      <point x="473" y="380" type="line"/>
      <point x="483" y="380"/>
      <point x="487" y="379"/>
      <point x="495" y="379" type="curve" smooth="yes"/>
      <point x="647" y="379"/>
      <point x="725" y="451"/>
      <point x="725" y="510" type="curve" smooth="yes"/>
      <point x="725" y="561"/>
      <point x="666" y="607"/>
      <point x="576" y="607" type="curve" smooth="yes"/>
    </contour>
    <contour>
      <point x="310" y="265" type="line"/>
      <point x="310" y="204" type="line"/>
      <point x="416" y="204" type="line"/>
      <point x="436" y="244" type="line"/>
      <point x="386" y="348" type="line"/>
    </contour>
    <contour>
      <point x="354" y="601" type="line"/>
      <point x="354" y="204" type="line"/>
      <point x="495" y="204" type="line"/>
      <point x="495" y="601" type="line"/>
    </contour>
    <contour>
      <point x="465" y="380" type="line"/>
      <point x="500" y="380"/>
      <point x="522" y="373"/>
      <point x="534" y="330" type="curve" smooth="yes"/>
      <point x="569" y="204" type="line"/>
      <point x="725" y="204" type="line"/>
      <point x="745" y="274" type="line"/>
      <point x="602" y="348" type="line"/>
      <point x="722" y="244" type="line"/>
      <point x="684" y="366" type="line"/>
      <point x="547" y="392" type="line"/>
    </contour>
    <contour>
      <point x="320" y="601" type="line"/>
      <point x="300" y="531" type="line"/>
      <point x="402" y="487" type="line"/>
      <point x="416" y="540" type="line"/>
      <point x="416" y="601" type="line"/>
    </contour>
    <contour>
      <point x="348" y="806"/>
      <point x="50" y="623"/>
      <point x="50" y="375" type="curve" smooth="yes"/>
      <point x="50" y="146"/>
      <point x="222" y="-20"/>
      <point x="484" y="-20" type="curve" smooth="yes"/>
      <point x="691" y="-20"/>
      <point x="989" y="163"/>
      <point x="989" y="410" type="curve" smooth="yes"/>
      <point x="989" y="639"/>
      <point x="818" y="806"/>
      <point x="555" y="806" type="curve" smooth="yes"/>
    </contour>
    <contour>
      <point x="722" y="682"/>
      <point x="824" y="534"/>
      <point x="824" y="363" type="curve" smooth="yes"/>
      <point x="824" y="214"/>
      <point x="692" y="104"/>
      <point x="542" y="104" type="curve" smooth="yes"/>
      <point x="317" y="104"/>
      <point x="215" y="254"/>
      <point x="215" y="423" type="curve" smooth="yes"/>
      <point x="215" y="572"/>
      <point x="347" y="682"/>
      <point x="497" y="682" type="curve" smooth="yes"/>
    </contour>
  </outline>
</glyph>
<glyph name="micro" format="1">
  <advance width="706"/>
  <unicode hex="00B5"/>
  <outline>
    <contour>
      <point x="200" y="553" type="line"/>
      <point x="20" y="484" type="line"/>
      <point x="54" y="446"/>
      <point x="78" y="398"/>
      <point x="78" y="362" type="curve"/>
      <point x="78" y="143" type="line" smooth="yes"/>
      <point x="78" y="49"/>
      <point x="147" y="-11"/>
      <point x="256" y="-11" type="curve" smooth="yes"/>
      <point x="281" y="-11"/>
      <point x="304" y="-8"/>
      <point x="321" y="-3" type="curve"/>
      <point x="458" y="107" type="line"/>
      <point x="428" y="180" type="line"/>
      <point x="393" y="160"/>
      <point x="359" y="154"/>
      <point x="334" y="154" type="curve" smooth="yes"/>
      <point x="292" y="154"/>
      <point x="278" y="176"/>
      <point x="278" y="233" type="curve" smooth="yes"/>
      <point x="278" y="553" type="line"/>
    </contour>
    <contour>
      <point x="78" y="212" type="line"/>
      <point x="78" y="-254" type="line"/>
      <point x="156" y="-254" type="line"/>
      <point x="336" y="-185" type="line"/>
      <point x="302" y="-147"/>
      <point x="277" y="-99"/>
      <point x="278" y="-63" type="curve" smooth="yes"/>
      <point x="278" y="212" type="line"/>
    </contour>
    <contour>
      <point x="540" y="553" type="line"/>
      <point x="360" y="484" type="line"/>
      <point x="394" y="446"/>
      <point x="418" y="398"/>
      <point x="418" y="362" type="curve" smooth="yes"/>
      <point x="418" y="-10" type="line"/>
      <point x="496" y="-10" type="line"/>
      <point x="676" y="59" type="line"/>
      <point x="642" y="97"/>
      <point x="618" y="145"/>
      <point x="618" y="181" type="curve" smooth="yes"/>
      <point x="618" y="553" type="line"/>
    </contour>
  </outline>
</glyph>
<glyph name="paragraph" format="1">
  <advance width="856"/>
  <unicode hex="00B6"/>
  <outline>
    <contour>
      <point x="183" y="796"/>
      <point x="10" y="677"/>
      <point x="10" y="526" type="curve" smooth="yes"/>
      <point x="10" y="393"/>
      <point x="101" y="290"/>
      <point x="239" y="290" type="curve" smooth="yes"/>
      <point x="314" y="290"/>
      <point x="357" y="300"/>
      <point x="493" y="300" type="curve"/>
      <point x="492" y="786" type="line"/>
      <point x="403" y="786"/>
      <point x="381" y="796"/>
      <point x="310" y="796" type="curve" smooth="yes"/>
    </contour>
    <contour>
      <point x="348" y="-183" type="line"/>
      <point x="348" y="-254" type="line"/>
      <point x="476" y="-254" type="line"/>
      <point x="454" y="-90" type="line"/>
    </contour>
    <contour>
      <point x="652" y="-254" type="line"/>
      <point x="796" y="-254" type="line"/>
      <point x="836" y="-174" type="line"/>
      <point x="661" y="-128" type="line"/>
    </contour>
    <contour>
      <point x="442" y="786" type="line"/>
      <point x="442" y="-254" type="line"/>
      <point x="547" y="-254" type="line"/>
      <point x="547" y="786" type="line"/>
    </contour>
    <contour>
      <point x="616" y="786" type="line"/>
      <point x="616" y="-254" type="line"/>
      <point x="721" y="-254" type="line"/>
      <point x="721" y="786" type="line"/>
    </contour>
    <contour>
      <point x="693" y="786" type="line"/>
      <point x="710" y="622" type="line"/>
      <point x="816" y="715" type="line"/>
      <point x="816" y="786" type="line"/>
    </contour>
  </outline>
</glyph>
<glyph name="Thorn" format="1">
  <advance width="779"/>
  <unicode hex="00DE"/>
  <outline>
    <contour>
      <point x="40" y="71" type="line"/>
      <point x="40" y="0" type="line"/>
      <point x="424" y="0" type="line"/>
      <point x="464" y="80" type="line"/>
      <point x="146" y="164" type="line"/>
    </contour>
    <contour>
      <point x="134" y="786" type="line"/>
      <point x="134" y="0" type="line"/>
      <point x="349" y="0" type="line"/>
      <point x="349" y="786" type="line"/>
    </contour>
    <contour>
      <point x="60" y="786" type="line"/>
      <point x="20" y="706" type="line"/>
      <point x="338" y="622" type="line"/>
      <point x="444" y="715" type="line"/>
      <point x="444" y="786" type="line"/>
    </contour>
    <contour>
      <point x="534" y="320"/>
      <point x="505" y="284"/>
      <point x="457" y="284" type="curve" smooth="yes"/>
      <point x="416" y="284" type="line"/>
      <point x="376" y="204" type="line"/>
      <point x="418" y="180" type="line"/>
      <point x="573" y="171"/>
      <point x="769" y="283"/>
      <point x="769" y="410" type="curve" smooth="yes"/>
      <point x="769" y="519"/>
      <point x="666" y="606"/>
      <point x="510" y="606" type="curve" smooth="yes"/>
      <point x="435" y="606"/>
      <point x="392" y="596"/>
      <point x="256" y="596" type="curve"/>
      <point x="273" y="375" type="line"/>
      <point x="305" y="453"/>
      <point x="357" y="502"/>
      <point x="422" y="502" type="curve" smooth="yes"/>
      <point x="498" y="502"/>
      <point x="534" y="448"/>
      <point x="534" y="383" type="curve" smooth="yes"/>
    </contour>
  </outline>
</glyph>
<glyph name="oslash" format="1">
  <advance width="711"/>
  <unicode hex="00F8"/>
  <outline>
    <contour>
      <point x="556" y="700" type="line"/>
      <point x="85" y="-116" type="line"/>
      <point x="155" y="-156" type="line"/>
      <point x="626" y="660" type="line"/>
    </contour>
    <component base="o"/>
  </outline>
</glyph>
<glyph name="Hbar" format="1">
  <advance width="1004"/>
  <unicode hex="0126"/>
  <outline>
    <contour>
      <point x="1003" y="609" type="line"/>
      <point x="0" y="609" type="line"/>
      <point x="0" y="514" type="line"/>
      <point x="1003" y="514" type="line"/>
    </contour>
    <component base="H"/>
  </outline>
</glyph>
<glyph name="idotless" format="1">
  <advance width="419"/>
  <unicode hex="0131"/>
  <outline>
    <contour>
      <point x="124" y="468" type="line"/>
      <point x="124" y="0" type="line"/>
      <point x="324" y="0" type="line"/>
      <point x="324" y="562" type="line"/>
    </contour>
    <contour>
      <point x="35" y="71" type="line"/>
      <point x="35" y="0" type="line"/>
      <point x="374" y="0" type="line"/>
      <point x="414" y="80" type="line"/>
      <point x="141" y="164" type="line"/>
    </contour>
    <contour>
      <point x="246" y="562" type="line"/>
      <point x="35" y="473" type="line"/>
      <point x="35" y="402" type="line"/>
      <point x="287" y="237" type="line"/>
      <point x="324" y="562" type="line"/>
    </contour>
    <contour>
      <point x="374" y="0" type="move" name="ogonek"/>
    </contour>
    <contour>
      <point x="210" y="543" type="move" name="top"/>
    </contour>
  </outline>
</glyph>
<glyph name="Eng" format="1">
  <advance width="914"/>
  <unicode hex="014A"/>
  <outline>
    <contour>
      <point x="646" y="13"/>
      <point x="636" y="-51"/>
      <point x="493" y="-204" type="curve"/>
      <point x="571" y="-264" type="line"/>
      <point x="818" y="-20" type="line"/>
      <point x="813" y="-4"/>
      <point x="809" y="45"/>
      <point x="809" y="99" type="curve"/>
      <point x="624" y="151" type="line"/>
    </contour>
    <component base="N"/>
  </outline>
</glyph>
<glyph name="OE" format="1">
  <advance width="1240"/>
  <unicode hex="0152"/>
  <outline>
    <contour>
      <point x="325" y="796"/>
      <point x="50" y="617"/>
      <point x="50" y="376" type="curve" smooth="yes"/>
      <point x="50" y="153"/>
      <point x="209" y="-10"/>
      <point x="449" y="-10" type="curve" smooth="yes"/>
      <point x="530" y="-10"/>
      <point x="577" y="0"/>
      <point x="723" y="0" type="curve"/>
      <point x="666" y="211" type="line"/>
      <point x="643" y="139"/>
      <point x="588" y="94"/>
      <point x="527" y="94" type="curve" smooth="yes"/>
      <point x="360" y="94"/>
      <point x="285" y="247"/>
      <point x="285" y="423" type="curve" smooth="yes"/>
      <point x="285" y="578"/>
      <point x="376" y="692"/>
      <point x="492" y="692" type="curve" smooth="yes"/>
      <point x="573" y="692"/>
      <point x="627" y="667"/>
      <point x="664" y="629" type="curve"/>
      <point x="722" y="786" type="line"/>
      <point x="623" y="786"/>
      <point x="599" y="796"/>
      <point x="520" y="796" type="curve" smooth="yes"/>
    </contour>
    <contour>
      <point x="694" y="95" type="line"/>
      <point x="694" y="0" type="line"/>
      <point x="1182" y="0" type="line"/>
      <point x="1182" y="95" type="line"/>
    </contour>
    <contour>
      <point x="590" y="786" type="line"/>
      <point x="590" y="0" type="line"/>
      <point x="805" y="0" type="line"/>
      <point x="805" y="786" type="line"/>
    </contour>
    <contour>
      <point x="957" y="70" type="line"/>
      <point x="1075" y="7" type="line"/>
      <point x="1190" y="-18" type="line"/>
      <point x="1190" y="272" type="line"/>
      <point x="1120" y="302" type="line"/>
    </contour>
    <contour>
      <point x="722" y="449" type="line"/>
      <point x="722" y="354" type="line"/>
      <point x="972" y="354" type="line"/>
      <point x="972" y="449" type="line"/>
    </contour>
    <contour>
      <point x="945" y="552" type="line"/>
      <point x="832" y="406" type="line"/>
      <point x="936" y="228" type="line"/>
      <point x="1016" y="268" type="line"/>
      <point x="1016" y="552" type="line"/>
    </contour>
    <contour>
      <point x="694" y="786" type="line"/>
      <point x="694" y="691" type="line"/>
      <point x="1172" y="691" type="line"/>
      <point x="1172" y="786" type="line"/>
    </contour>
    <contour>
      <point x="1065" y="779" type="line"/>
      <point x="927" y="776" type="line"/>
      <point x="1110" y="504" type="line"/>
      <point x="1180" y="534" type="line"/>
      <point x="1180" y="804" type="line"/>
    </contour>
  </outline>
</glyph>
<glyph name="Tbar" format="1">
  <advance width="852"/>
  <unicode hex="0166"/>
  <outline>
    <contour>
      <point x="725" y="439" type="line"/>
      <point x="127" y="439" type="line"/>
      <point x="127" y="344" type="line"/>
      <point x="725" y="344" type="line"/>
    </contour>
    <component base="T"/>
  </outline>
</glyph>
<glyph name="Uogonek" format="1">
  <advance width="898"/>
  <unicode hex="0172"/>
  <outline>
    <contour>
      <point x="425" y="-103" type="line"/>
      <point x="420" y="-114"/>
      <point x="417" y="-131"/>
      <point x="417" y="-148" type="curve" smooth="yes"/>
      <point x="417" y="-208"/>
      <point x="480" y="-249"/>
      <point x="586" y="-264" type="curve"/>
      <point x="661" y="-204" type="line"/>
      <point x="661" y="-126" type="line"/>
      <point x="604" y="-126"/>
      <point x="582" y="-117"/>
      <point x="582" y="-90" type="curve" smooth="yes"/>
      <point x="582" y="-74"/>
      <point x="588" y="-39"/>
      <point x="717" y="101" type="curve"/>
      <point x="598" y="65" type="line"/>
    </contour>
    <component base="U"/>
  </outline>
</glyph>
<glyph name="dotaccent" format="1">
  <advance width="325"/>
  <unicode hex="02D9"/>
  <outline>
    <component base="period" yOffset="645"/>
    <contour>
      <point x="165" y="543" type="move" name="_top"/>
    </contour>
  </outline>
</glyph>
<glyph name="hungarumlaut" format="1">
  <advance width="590"/>
  <unicode hex="02DD"/>
  <outline>
    <contour>
      <point x="335" y="696" type="line"/>
      <point x="403" y="665" type="line"/>
      <point x="645" y="809" type="line"/>
      <point x="616" y="873" type="line"/>
      <point x="412" y="892" type="line"/>
    </contour>
    <contour>
      <point x="15" y="696" type="line"/>
      <point x="83" y="665" type="line"/>
      <point x="325" y="809" type="line"/>
      <point x="296" y="873" type="line"/>
      <point x="92" y="892" type="line"/>
    </contour>
    <contour>
      <point x="245" y="543" type="move" name="_top"/>
    </contour>
  </outline>
</glyph>
<glyph name="commaaccent" format="1">
  <advance width="440"/>
  <unicode hex="0326"/>
  <outline>
    <contour>
      <point x="110" y="-83" type="line"/>
      <point x="70" y="-163" type="line"/>
      <point x="227" y="-241" type="line"/>
      <point x="189" y="-132" type="line"/>
      <point x="133" y="-304" type="line"/>
      <point x="241" y="-304" type="line"/>
      <point x="369" y="-154" type="line"/>
      <point x="369" y="-83" type="line"/>
    </contour>
    <contour>
      <point x="223" y="0" type="move" name="_bottom"/>
    </contour>
    <contour>
      <point x="224" y="100" type="move" name="_g"/>
    </contour>
  </outline>
</glyph>
<glyph name="Germandbls" format="1">
  <advance width="949"/>
  <unicode hex="1E9E"/>
  <outline>
    <contour>
      <point x="289" y="806"/>
      <point x="114" y="665"/>
      <point x="114" y="562" type="curve" smooth="yes"/>
      <point x="114" y="0" type="line"/>
      <point x="329" y="0" type="line"/>
      <point x="329" y="618" type="line" smooth="yes"/>
      <point x="329" y="656"/>
      <point x="352" y="686"/>
      <point x="393" y="686" type="curve" smooth="yes"/>
      <point x="501" y="686"/>
      <point x="583" y="628"/>
      <point x="679" y="606" type="curve"/>
      <point x="704" y="656" type="line"/>
      <point x="401" y="398" type="line"/>
      <point x="566" y="423" type="line"/>
      <point x="919" y="708" type="line"/>
      <point x="919" y="786" type="line"/>
      <point x="658" y="786"/>
      <point x="555" y="806"/>
      <point x="410" y="806" type="curve" smooth="yes"/>
    </contour>
    <contour>
      <point x="20" y="71" type="line"/>
      <point x="20" y="0" type="line"/>
      <point x="218" y="0" type="line"/>
      <point x="258" y="80" type="line"/>
      <point x="126" y="164" type="line"/>
    </contour>
    <contour>
      <point x="596" y="520" type="line"/>
      <point x="401" y="398" type="line"/>
      <point x="401" y="320" type="line"/>
      <point x="724" y="320" type="line"/>
      <point x="852" y="503" type="line"/>
      <point x="393" y="78" type="line"/>
      <point x="393" y="0" type="line"/>
      <point x="816" y="0" type="line"/>
      <point x="911" y="-18" type="line"/>
      <point x="911" y="272" type="line"/>
      <point x="841" y="292" type="line"/>
      <point x="771" y="129" type="line"/>
      <point x="859" y="200" type="line"/>
      <point x="588" y="200" type="line"/>
      <point x="471" y="26" type="line"/>
      <point x="919" y="442" type="line"/>
      <point x="919" y="520" type="line"/>
    </contour>
  </outline>
</glyph>
<glyph name="daggerdbl" format="1">
  <advance width="661"/>
  <unicode hex="2021"/>
  <outline>
    <contour>
      <point x="201" y="838" type="line"/>
      <point x="201" y="727" type="line"/>
      <point x="348" y="663" type="line"/>
      <point x="251" y="762" type="line"/>
      <point x="299" y="514" type="line"/>
      <point x="359" y="514" type="line"/>
      <point x="420" y="771" type="line"/>
      <point x="372" y="892" type="line"/>
    </contour>
    <contour>
      <point x="64" y="614" type="line"/>
      <point x="10" y="463" type="line"/>
      <point x="131" y="415" type="line"/>
      <point x="328" y="506" type="line"/>
      <point x="328" y="526" type="line"/>
      <point x="140" y="584" type="line"/>
      <point x="239" y="487" type="line"/>
      <point x="175" y="614" type="line"/>
    </contour>
    <contour>
      <point x="328" y="526" type="line"/>
      <point x="328" y="506" type="line"/>
      <point x="516" y="448" type="line"/>
      <point x="417" y="545" type="line"/>
      <point x="481" y="418" type="line"/>
      <point x="592" y="418" type="line"/>
      <point x="646" y="569" type="line"/>
      <point x="525" y="617" type="line"/>
    </contour>
    <contour>
      <point x="299" y="514" type="line"/>
      <point x="221" y="273" type="line"/>
      <point x="302" y="114" type="line"/>
      <point x="362" y="114" type="line"/>
      <point x="440" y="354" type="line"/>
      <point x="359" y="514" type="line"/>
    </contour>
    <contour>
      <point x="69" y="210" type="line"/>
      <point x="15" y="59" type="line"/>
      <point x="136" y="11" type="line"/>
      <point x="333" y="102" type="line"/>
      <point x="333" y="122" type="line"/>
      <point x="145" y="180" type="line"/>
      <point x="244" y="83" type="line"/>
      <point x="180" y="210" type="line"/>
    </contour>
    <contour>
      <point x="333" y="122" type="line"/>
      <point x="333" y="102" type="line"/>
      <point x="521" y="44" type="line"/>
      <point x="422" y="141" type="line"/>
      <point x="486" y="14" type="line"/>
      <point x="597" y="14" type="line"/>
      <point x="651" y="165" type="line"/>
      <point x="530" y="213" type="line"/>
    </contour>
    <contour>
      <point x="302" y="114" type="line"/>
      <point x="241" y="-143" type="line"/>
      <point x="289" y="-264" type="line"/>
      <point x="460" y="-210" type="line"/>
      <point x="460" y="-99" type="line"/>
      <point x="313" y="-35" type="line"/>
      <point x="410" y="-134" type="line"/>
      <point x="362" y="114" type="line"/>
    </contour>
  </outline>
</glyph>
<glyph name="numero" format="1">
  <advance width="1624"/>
  <unicode hex="2116"/>
  <outline>
    <contour>
      <point x="975" y="252" type="line"/>
      <point x="934" y="171" type="line"/>
      <point x="1563" y="171" type="line"/>
      <point x="1604" y="252" type="line"/>
    </contour>
    <contour>
      <point x="975" y="81" type="line"/>
      <point x="934" y="0" type="line"/>
      <point x="1563" y="0" type="line"/>
      <point x="1604" y="81" type="line"/>
    </contour>
    <component base="N"/>
    <component base="o" xOffset="949" yOffset="363" xScale="0.9" yScale="0.8"/>
  </outline>
</glyph>
<glyph name="Ohm" format="1">
  <advance width="989"/>
  <unicode hex="2126"/>
  <outline>
    <contour>
      <point x="331" y="806"/>
      <point x="50" y="671"/>
      <point x="50" y="495" type="curve" smooth="yes"/>
      <point x="50" y="338"/>
      <point x="218" y="220"/>
      <point x="444" y="220" type="curve"/>
      <point x="460" y="355" type="line"/>
      <point x="340" y="371"/>
      <point x="285" y="456"/>
      <point x="285" y="543" type="curve" smooth="yes"/>
      <point x="285" y="614"/>
      <point x="368" y="672"/>
      <point x="472" y="672" type="curve" smooth="yes"/>
      <point x="632" y="672"/>
      <point x="704" y="587"/>
      <point x="704" y="483" type="curve" smooth="yes"/>
      <point x="704" y="414"/>
      <point x="627" y="359"/>
      <point x="529" y="355" type="curve"/>
      <point x="540" y="231" type="line"/>
      <point x="713" y="252"/>
      <point x="939" y="374"/>
      <point x="939" y="530" type="curve" smooth="yes"/>
      <point x="939" y="687"/>
      <point x="776" y="806"/>
      <point x="530" y="806" type="curve" smooth="yes"/>
    </contour>
    <contour>
      <point x="285" y="285" type="line"/>
      <point x="285" y="0" type="line"/>
      <point x="460" y="0" type="line"/>
      <point x="460" y="355" type="line"/>
    </contour>
    <contour>
      <point x="78" y="95" type="line"/>
      <point x="78" y="0" type="line"/>
      <point x="426" y="0" type="line"/>
      <point x="426" y="95" type="line"/>
    </contour>
    <contour>
      <point x="70" y="232" type="line"/>
      <point x="70" y="-18" type="line"/>
      <point x="185" y="7" type="line"/>
      <point x="323" y="10" type="line"/>
      <point x="140" y="262" type="line"/>
    </contour>
    <contour>
      <point x="529" y="0" type="line"/>
      <point x="704" y="0" type="line"/>
      <point x="704" y="285" type="line"/>
      <point x="529" y="355" type="line"/>
    </contour>
    <contour>
      <point x="563" y="95" type="line"/>
      <point x="563" y="0" type="line"/>
      <point x="911" y="0" type="line"/>
      <point x="911" y="95" type="line"/>
    </contour>
    <contour>
      <point x="666" y="10" type="line"/>
      <point x="804" y="7" type="line"/>
      <point x="919" y="-18" type="line"/>
      <point x="919" y="232" type="line"/>
      <point x="849" y="262" type="line"/>
    </contour>
  </outline>
</glyph>
<glyph name="leftRightArrow" format="1">
  <advance width="1170"/>
  <unicode hex="2194"/>
  <outline>
    <contour>
      <point x="787" y="497" type="line"/>
      <point x="824" y="446"/>
      <point x="850" y="389"/>
      <point x="846" y="356" type="curve"/>
      <point x="635" y="356" type="line"/>
      <point x="733" y="434" type="line"/>
      <point x="693" y="514" type="line"/>
      <point x="584" y="430"/>
      <point x="460" y="368"/>
      <point x="324" y="356" type="curve"/>
      <point x="320" y="389"/>
      <point x="346" y="446"/>
      <point x="383" y="497" type="curve"/>
      <point x="342" y="577" type="line"/>
      <point x="237" y="470"/>
      <point x="109" y="374"/>
      <point x="10" y="316" type="curve"/>
      <point x="109" y="258"/>
      <point x="237" y="162"/>
      <point x="342" y="55" type="curve"/>
      <point x="383" y="135" type="line"/>
      <point x="346" y="186"/>
      <point x="320" y="243"/>
      <point x="324" y="276" type="curve"/>
      <point x="535" y="276" type="line"/>
      <point x="437" y="198" type="line"/>
      <point x="477" y="118" type="line"/>
      <point x="586" y="202"/>
      <point x="710" y="264"/>
      <point x="846" y="276" type="curve"/>
      <point x="850" y="243"/>
      <point x="824" y="186"/>
      <point x="787" y="135" type="curve"/>
      <point x="828" y="55" type="line"/>
      <point x="933" y="162"/>
      <point x="1061" y="258"/>
      <point x="1160" y="316" type="curve"/>
      <point x="1061" y="374"/>
      <point x="933" y="470"/>
      <point x="828" y="577" type="curve"/>
    </contour>
  </outline>
</glyph>
<glyph name="product" format="1">
  <advance width="1004"/>
  <unicode hex="220F"/>
  <outline>
    <contour>
      <point x="40" y="-29" type="line"/>
      <point x="40" y="-100" type="line"/>
      <point x="424" y="-100" type="line"/>
      <point x="464" y="-20" type="line"/>
      <point x="146" y="64" type="line"/>
    </contour>
    <contour>
      <point x="134" y="786" type="line"/>
      <point x="134" y="-100" type="line"/>
      <point x="349" y="-100" type="line"/>
      <point x="349" y="786" type="line"/>
    </contour>
    <contour>
      <point x="285" y="715" type="line"/>
      <point x="285" y="786" type="line"/>
      <point x="60" y="786" type="line"/>
      <point x="20" y="706" type="line"/>
      <point x="338" y="622" type="line"/>
    </contour>
    <contour>
      <point x="560" y="-29" type="line"/>
      <point x="560" y="-100" type="line"/>
      <point x="944" y="-100" type="line"/>
      <point x="984" y="-20" type="line"/>
      <point x="666" y="64" type="line"/>
    </contour>
    <contour>
      <point x="654" y="786" type="line"/>
      <point x="654" y="-100" type="line"/>
      <point x="869" y="-100" type="line"/>
      <point x="869" y="786" type="line"/>
    </contour>
    <contour>
      <point x="964" y="715" type="line"/>
      <point x="964" y="786" type="line"/>
      <point x="792" y="786" type="line"/>
      <point x="752" y="706" type="line"/>
      <point x="858" y="622" type="line"/>
    </contour>
    <contour>
      <point x="721" y="786" type="line"/>
      <point x="243" y="786" type="line"/>
      <point x="243" y="691" type="line"/>
      <point x="721" y="691" type="line"/>
    </contour>
  </outline>
</glyph>
<glyph name="summation" format="1">
  <advance width="779"/>
  <unicode hex="2211"/>
  <outline>
    <contour>
      <point x="29" y="-5" type="line"/>
      <point x="207" y="-85" type="line"/>
      <point x="576" y="344" type="line"/>
      <point x="360" y="379" type="line"/>
    </contour>
    <contour>
      <point x="29" y="-5" type="line"/>
      <point x="29" y="-100" type="line"/>
      <point x="721" y="-100" type="line"/>
      <point x="721" y="-5" type="line"/>
    </contour>
    <contour>
      <point x="516" y="-20" type="line"/>
      <point x="614" y="-93" type="line"/>
      <point x="729" y="-118" type="line"/>
      <point x="729" y="182" type="line"/>
      <point x="659" y="212" type="line"/>
    </contour>
    <contour>
      <point x="49" y="691" type="line"/>
      <point x="360" y="309" type="line"/>
      <point x="576" y="344" type="line"/>
      <point x="228" y="771" type="line"/>
    </contour>
    <contour>
      <point x="49" y="786" type="line"/>
      <point x="49" y="691" type="line"/>
      <point x="711" y="691" type="line"/>
      <point x="711" y="786" type="line"/>
    </contour>
    <contour>
      <point x="604" y="779" type="line"/>
      <point x="506" y="726" type="line"/>
      <point x="649" y="494" type="line"/>
      <point x="719" y="524" type="line"/>
      <point x="719" y="804" type="line"/>
    </contour>
  </outline>
</glyph>
<glyph name="infinity" format="1">
  <advance width="1059"/>
  <unicode hex="221E"/>
  <outline>
    <contour>
      <point x="749" y="523"/>
      <point x="728" y="521"/>
      <point x="713" y="515" type="curve"/>
      <point x="536" y="369" type="line"/>
      <point x="566" y="306" type="line"/>
      <point x="645" y="387"/>
      <point x="697" y="398"/>
      <point x="731" y="398" type="curve" smooth="yes"/>
      <point x="771" y="398"/>
      <point x="793" y="356"/>
      <point x="793" y="299" type="curve" smooth="yes"/>
      <point x="793" y="253"/>
      <point x="779" y="228"/>
      <point x="752" y="228" type="curve" smooth="yes"/>
      <point x="699" y="228"/>
      <point x="666" y="295"/>
      <point x="632" y="339" type="curve" smooth="yes"/>
      <point x="559" y="434"/>
      <point x="515" y="523"/>
      <point x="377" y="523" type="curve" smooth="yes"/>
      <point x="238" y="523"/>
      <point x="50" y="414"/>
      <point x="50" y="272" type="curve" smooth="yes"/>
      <point x="50" y="171"/>
      <point x="150" y="96"/>
      <point x="296" y="96" type="curve" smooth="yes"/>
      <point x="310" y="96"/>
      <point x="331" y="98"/>
      <point x="346" y="104" type="curve"/>
      <point x="523" y="250" type="line"/>
      <point x="493" y="313" type="line"/>
      <point x="414" y="232"/>
      <point x="362" y="221"/>
      <point x="328" y="221" type="curve" smooth="yes"/>
      <point x="288" y="221"/>
      <point x="266" y="263"/>
      <point x="266" y="320" type="curve" smooth="yes"/>
      <point x="266" y="374"/>
      <point x="280" y="403"/>
      <point x="307" y="403" type="curve" smooth="yes"/>
      <point x="360" y="403"/>
      <point x="393" y="328"/>
      <point x="427" y="280" type="curve" smooth="yes"/>
      <point x="500" y="177"/>
      <point x="544" y="96"/>
      <point x="682" y="96" type="curve" smooth="yes"/>
      <point x="821" y="96"/>
      <point x="1009" y="205"/>
      <point x="1009" y="347" type="curve" smooth="yes"/>
      <point x="1009" y="448"/>
      <point x="909" y="523"/>
      <point x="763" y="523" type="curve" smooth="yes"/>
    </contour>
  </outline>
</glyph>
<glyph name="approxequal" format="1">
  <advance width="615"/>
  <unicode hex="2248"/>
  <outline>
    <contour>
      <point x="137" y="500"/>
      <point x="68" y="464"/>
      <point x="35" y="384" type="curve"/>
      <point x="80" y="341" type="line"/>
      <point x="106" y="386"/>
      <point x="135" y="418"/>
      <point x="177" y="418" type="curve" smooth="yes"/>
      <point x="254" y="418"/>
      <point x="341" y="314"/>
      <point x="433" y="314" type="curve" smooth="yes"/>
      <point x="490" y="314"/>
      <point x="549" y="353"/>
      <point x="580" y="420" type="curve"/>
      <point x="535" y="463" type="line"/>
      <point x="509" y="425"/>
      <point x="483" y="396"/>
      <point x="445" y="396" type="curve" smooth="yes"/>
      <point x="371" y="396"/>
      <point x="285" y="500"/>
      <point x="192" y="500" type="curve" smooth="yes"/>
    </contour>
    <contour>
      <point x="123" y="315"/>
      <point x="65" y="269"/>
      <point x="35" y="199" type="curve"/>
      <point x="80" y="156" type="line"/>
      <point x="106" y="204"/>
      <point x="132" y="233"/>
      <point x="171" y="233" type="curve" smooth="yes"/>
      <point x="245" y="233"/>
      <point x="339" y="129"/>
      <point x="431" y="129" type="curve" smooth="yes"/>
      <point x="485" y="129"/>
      <point x="548" y="164"/>
      <point x="580" y="235" type="curve"/>
      <point x="535" y="278" type="line"/>
      <point x="510" y="240"/>
      <point x="480" y="211"/>
      <point x="439" y="211" type="curve" smooth="yes"/>
      <point x="361" y="211"/>
      <point x="273" y="315"/>
      <point x="183" y="315" type="curve" smooth="yes"/>
    </contour>
  </outline>
</glyph>
<glyph name="notequal" format="1">
  <advance width="555"/>
  <unicode hex="2260"/>
  <outline>
    <contour>
      <point x="396" y="625" type="line"/>
      <point x="88" y="44" type="line"/>
      <point x="160" y="4" type="line"/>
      <point x="468" y="587" type="line"/>
    </contour>
    <component base="equal"/>
  </outline>
</glyph>
<glyph name="reversedRotatedFloralHeartBullet" format="1">
  <advance width="964"/>
  <unicode hex="2619"/>
  <outline>
    <contour>
      <point x="229" y="588"/>
      <point x="251" y="250"/>
      <point x="131" y="235" type="curve"/>
      <point x="105" y="310"/>
      <point x="126" y="371"/>
      <point x="174" y="408" type="curve"/>
      <point x="174" y="439" type="line"/>
      <point x="46" y="501" type="line"/>
      <point x="31" y="402"/>
      <point x="42" y="276"/>
      <point x="108" y="174" type="curve" smooth="yes"/>
      <point x="180" y="62"/>
      <point x="314" y="-19"/>
      <point x="450" y="-19" type="curve" smooth="yes"/>
      <point x="572" y="-19"/>
      <point x="673" y="47"/>
      <point x="673" y="165" type="curve" smooth="yes"/>
      <point x="673" y="253"/>
      <point x="617" y="319"/>
      <point x="542" y="338" type="curve"/>
      <point x="529" y="317"/>
      <point x="509" y="289"/>
      <point x="483" y="258" type="curve"/>
      <point x="445" y="287" type="line"/>
      <point x="488" y="351"/>
      <point x="514" y="406"/>
      <point x="514" y="455" type="curve" smooth="yes"/>
      <point x="514" y="519"/>
      <point x="470" y="588"/>
      <point x="395" y="588" type="curve" smooth="yes"/>
    </contour>
    <contour>
      <point x="695" y="764"/>
      <point x="588" y="687"/>
      <point x="588" y="583" type="curve" smooth="yes"/>
      <point x="588" y="536"/>
      <point x="610" y="497"/>
      <point x="620" y="486" type="curve"/>
      <point x="651" y="499"/>
      <point x="688" y="523"/>
      <point x="709" y="541" type="curve"/>
      <point x="687" y="557"/>
      <point x="668" y="590"/>
      <point x="668" y="627" type="curve" smooth="yes"/>
      <point x="668" y="671"/>
      <point x="694" y="700"/>
      <point x="736" y="700" type="curve" smooth="yes"/>
      <point x="791" y="700"/>
      <point x="819" y="650"/>
      <point x="819" y="607" type="curve" smooth="yes"/>
      <point x="819" y="504"/>
      <point x="661" y="467"/>
      <point x="570" y="383" type="curve"/>
      <point x="585" y="378"/>
      <point x="603" y="370"/>
      <point x="625" y="358" type="curve"/>
      <point x="694" y="436"/>
      <point x="919" y="482"/>
      <point x="919" y="643" type="curve" smooth="yes"/>
      <point x="919" y="719"/>
      <point x="868" y="764"/>
      <point x="793" y="764" type="curve" smooth="yes"/>
    </contour>
    <contour>
      <point x="816" y="316"/>
      <point x="851" y="293"/>
      <point x="851" y="271" type="curve" smooth="yes"/>
      <point x="851" y="210"/>
      <point x="723" y="185"/>
      <point x="723" y="86" type="curve" smooth="yes"/>
      <point x="723" y="49"/>
      <point x="736" y="20"/>
      <point x="746" y="0" type="curve"/>
      <point x="784" y="0" type="line"/>
      <point x="888" y="48" type="line"/>
      <point x="862" y="78"/>
      <point x="853" y="107"/>
      <point x="853" y="135" type="curve" smooth="yes"/>
      <point x="853" y="217"/>
      <point x="934" y="245"/>
      <point x="934" y="320" type="curve" smooth="yes"/>
      <point x="934" y="373"/>
      <point x="902" y="411"/>
      <point x="857" y="442" type="curve"/>
      <point x="814" y="413"/>
      <point x="765" y="393"/>
      <point x="718" y="361" type="curve"/>
      <point x="718" y="330" type="line"/>
    </contour>
  </outline>
</glyph>
<glyph name="upWhitePointingindex" format="1">
  <advance width="877"/>
  <unicode hex="261D"/>
  <outline>
    <contour>
      <point x="717" y="483"/>
      <point x="701" y="669"/>
      <point x="698" y="691" type="curve" smooth="yes"/>
      <point x="658" y="909"/>
      <point x="628" y="989"/>
      <point x="548" y="989" type="curve" smooth="yes"/>
      <point x="519" y="989"/>
      <point x="494" y="964"/>
      <point x="494" y="846" type="curve" smooth="yes"/>
      <point x="494" y="774"/>
      <point x="503" y="603"/>
      <point x="504" y="578" type="curve"/>
      <point x="521" y="609"/>
      <point x="592" y="614"/>
      <point x="589" y="668" type="curve" smooth="yes"/>
      <point x="585" y="740"/>
      <point x="573" y="807"/>
      <point x="573" y="859" type="curve" smooth="yes"/>
      <point x="573" y="898"/>
      <point x="570" y="900"/>
      <point x="587" y="900" type="curve" smooth="yes"/>
      <point x="617" y="900"/>
      <point x="632" y="749"/>
      <point x="640" y="686" type="curve" smooth="yes"/>
      <point x="643" y="665"/>
      <point x="650" y="559"/>
      <point x="663" y="494" type="curve"/>
      <point x="673" y="481"/>
      <point x="702" y="453"/>
      <point x="721" y="432" type="curve"/>
    </contour>
    <contour>
      <point x="470" y="577" type="line"/>
      <point x="452" y="604"/>
      <point x="448" y="603"/>
      <point x="430" y="603" type="curve" smooth="yes"/>
      <point x="414" y="603"/>
      <point x="402" y="601"/>
      <point x="386" y="591" type="curve"/>
      <point x="368" y="573"/>
      <point x="338" y="525"/>
      <point x="350" y="483" type="curve" smooth="yes"/>
      <point x="366" y="427"/>
      <point x="385" y="363"/>
      <point x="385" y="350" type="curve" smooth="yes"/>
      <point x="394" y="307"/>
      <point x="405" y="283"/>
      <point x="420" y="283" type="curve"/>
      <point x="470" y="335" type="line"/>
      <point x="454" y="341"/>
      <point x="451" y="345"/>
      <point x="448" y="359" type="curve"/>
      <point x="447" y="404"/>
      <point x="438" y="471"/>
      <point x="434" y="507" type="curve"/>
      <point x="448" y="516"/>
      <point x="462" y="522"/>
      <point x="477" y="522" type="curve"/>
    </contour>
    <contour>
      <point x="372" y="252"/>
      <point x="349" y="258"/>
      <point x="345" y="274" type="curve" smooth="yes"/>
      <point x="334" y="319"/>
      <point x="313" y="357"/>
      <point x="302" y="402" type="curve"/>
      <point x="307" y="407"/>
      <point x="316" y="412"/>
      <point x="331" y="413" type="curve"/>
      <point x="323" y="476" type="line"/>
      <point x="307" y="497"/>
      <point x="310" y="495"/>
      <point x="301" y="495" type="curve" smooth="yes"/>
      <point x="286" y="495"/>
      <point x="271" y="484"/>
      <point x="256" y="469" type="curve" smooth="yes"/>
      <point x="231" y="443"/>
      <point x="216" y="393"/>
      <point x="232" y="353" type="curve" smooth="yes"/>
      <point x="246" y="319"/>
      <point x="261" y="284"/>
      <point x="275" y="250" type="curve" smooth="yes"/>
      <point x="289" y="214"/>
      <point x="307" y="183"/>
      <point x="350" y="175" type="curve"/>
      <point x="386" y="250" type="line"/>
    </contour>
    <contour>
      <point x="270" y="186" type="line"/>
      <point x="265" y="174"/>
      <point x="257" y="170"/>
      <point x="246" y="170" type="curve" smooth="yes"/>
      <point x="239" y="170"/>
      <point x="229" y="183"/>
      <point x="223" y="204" type="curve" smooth="yes"/>
      <point x="214" y="237"/>
      <point x="205" y="254"/>
      <point x="205" y="268" type="curve"/>
      <point x="210" y="274"/>
      <point x="214" y="279"/>
      <point x="223" y="288" type="curve"/>
      <point x="201" y="350" type="line"/>
      <point x="194" y="358"/>
      <point x="183" y="368"/>
      <point x="176" y="368" type="curve" smooth="yes"/>
      <point x="148" y="368"/>
      <point x="114" y="302"/>
      <point x="120" y="270" type="curve" smooth="yes"/>
      <point x="125" y="252"/>
      <point x="145" y="174"/>
      <point x="148" y="169" type="curve" smooth="yes"/>
      <point x="174" y="102"/>
      <point x="206" y="86"/>
      <point x="235" y="86" type="curve" smooth="yes"/>
      <point x="272" y="86"/>
      <point x="285" y="121"/>
      <point x="285" y="180" type="curve"/>
    </contour>
    <contour>
      <point x="736" y="403"/>
      <point x="657" y="453"/>
      <point x="633" y="490" type="curve" smooth="yes"/>
      <point x="614" y="513"/>
      <point x="601" y="591"/>
      <point x="567" y="591" type="curve" smooth="yes"/>
      <point x="523" y="591"/>
      <point x="485" y="511"/>
      <point x="485" y="434" type="curve" smooth="yes"/>
      <point x="485" y="381"/>
      <point x="499" y="349"/>
      <point x="511" y="304" type="curve"/>
      <point x="521" y="325" type="line"/>
      <point x="432" y="270"/>
      <point x="383" y="198"/>
      <point x="327" y="-56" type="curve"/>
      <point x="357" y="-70" type="line"/>
      <point x="413" y="72"/>
      <point x="469" y="99"/>
      <point x="621" y="200" type="curve"/>
      <point x="583" y="280"/>
      <point x="563" y="413"/>
      <point x="563" y="471" type="curve" smooth="yes"/>
      <point x="563" y="508"/>
      <point x="573" y="524"/>
      <point x="577" y="524" type="curve" smooth="yes"/>
      <point x="594" y="524"/>
      <point x="601" y="440"/>
      <point x="637" y="404" type="curve" smooth="yes"/>
      <point x="643" y="395"/>
      <point x="703" y="301"/>
      <point x="703" y="294" type="curve" smooth="yes"/>
      <point x="703" y="246"/>
      <point x="650" y="107"/>
      <point x="638" y="70" type="curve" smooth="yes"/>
      <point x="628" y="23"/>
      <point x="572" y="-83"/>
      <point x="551" y="-159" type="curve"/>
      <point x="289" y="-159" type="line"/>
      <point x="245" y="-68"/>
      <point x="209" y="-22"/>
      <point x="197" y="72" type="curve"/>
      <point x="162" y="79"/>
      <point x="147" y="109"/>
      <point x="134" y="134" type="curve"/>
      <point x="132" y="104"/>
      <point x="132" y="81"/>
      <point x="132" y="66" type="curve" smooth="yes"/>
      <point x="132" y="-83"/>
      <point x="203" y="-209"/>
      <point x="223" y="-257" type="curve"/>
      <point x="592" y="-257" type="line"/>
      <point x="633" y="-139"/>
      <point x="736" y="7"/>
      <point x="744" y="106" type="curve"/>
      <point x="767" y="314" type="line"/>
    </contour>
  </outline>
</glyph>
<glyph name="rightWhitePointingindex" format="1">
  <advance width="1787"/>
  <unicode hex="261E"/>
  <outline>
    <contour>
      <point x="834" y="590" type="line"/>
      <point x="735" y="582"/>
      <point x="589" y="479"/>
      <point x="471" y="438" type="curve"/>
      <point x="471" y="69" type="line"/>
      <point x="519" y="49"/>
      <point x="645" y="-22"/>
      <point x="794" y="-22" type="curve" smooth="yes"/>
      <point x="809" y="-22"/>
      <point x="832" y="-22"/>
      <point x="862" y="-20" type="curve"/>
      <point x="837" y="-7"/>
      <point x="807" y="8"/>
      <point x="800" y="43" type="curve"/>
      <point x="706" y="55"/>
      <point x="660" y="91"/>
      <point x="569" y="135" type="curve"/>
      <point x="569" y="397" type="line"/>
      <point x="645" y="418"/>
      <point x="751" y="474"/>
      <point x="798" y="484" type="curve" smooth="yes"/>
      <point x="835" y="496"/>
      <point x="974" y="549"/>
      <point x="1022" y="549" type="curve" smooth="yes"/>
      <point x="1029" y="549"/>
      <point x="1123" y="489"/>
      <point x="1132" y="483" type="curve" smooth="yes"/>
      <point x="1168" y="447"/>
      <point x="1252" y="440"/>
      <point x="1252" y="423" type="curve" smooth="yes"/>
      <point x="1252" y="419"/>
      <point x="1236" y="409"/>
      <point x="1199" y="409" type="curve" smooth="yes"/>
      <point x="1141" y="409"/>
      <point x="1008" y="429"/>
      <point x="928" y="467" type="curve"/>
      <point x="827" y="315"/>
      <point x="800" y="259"/>
      <point x="658" y="203" type="curve"/>
      <point x="672" y="173" type="line"/>
      <point x="926" y="229"/>
      <point x="998" y="278"/>
      <point x="1053" y="367" type="curve"/>
      <point x="1032" y="357" type="line"/>
      <point x="1077" y="345"/>
      <point x="1109" y="331"/>
      <point x="1162" y="331" type="curve" smooth="yes"/>
      <point x="1239" y="331"/>
      <point x="1319" y="369"/>
      <point x="1319" y="413" type="curve" smooth="yes"/>
      <point x="1319" y="447"/>
      <point x="1241" y="460"/>
      <point x="1218" y="479" type="curve" smooth="yes"/>
      <point x="1181" y="503"/>
      <point x="1131" y="582"/>
      <point x="1042" y="613" type="curve"/>
    </contour>
    <contour>
      <point x="479" y="138" type="line"/>
      <point x="309" y="68" type="line"/>
      <point x="308" y="90" type="line"/>
      <point x="479" y="199" type="line"/>
    </contour>
    <contour>
      <point x="150" y="635"/>
      <point x="110" y="604"/>
      <point x="110" y="558" type="curve" smooth="yes"/>
      <point x="110" y="520"/>
      <point x="188" y="477"/>
      <point x="188" y="410" type="curve" smooth="yes"/>
      <point x="188" y="360"/>
      <point x="111" y="324"/>
      <point x="111" y="270" type="curve" smooth="yes"/>
      <point x="111" y="240"/>
      <point x="185" y="172"/>
      <point x="185" y="123" type="curve" smooth="yes"/>
      <point x="185" y="72"/>
      <point x="112" y="34"/>
      <point x="112" y="-13" type="curve" smooth="yes"/>
      <point x="112" y="-61"/>
      <point x="185" y="-109"/>
      <point x="198" y="-194" type="curve"/>
      <point x="568" y="97" type="line"/>
      <point x="569" y="393" type="line"/>
      <point x="209" y="684" type="line"/>
    </contour>
    <contour>
      <point x="202" y="626" type="line"/>
      <point x="471" y="404" type="line"/>
      <point x="471" y="120" type="line"/>
      <point x="242" y="-50" type="line"/>
      <point x="282" y="-40" type="line"/>
      <point x="265" y="-16"/>
      <point x="244" y="0"/>
      <point x="244" y="49" type="curve" smooth="yes"/>
      <point x="244" y="92"/>
      <point x="291" y="118"/>
      <point x="291" y="151" type="curve" smooth="yes"/>
      <point x="291" y="195"/>
      <point x="213" y="263"/>
      <point x="213" y="309" type="curve" smooth="yes"/>
      <point x="213" y="356"/>
      <point x="283" y="373"/>
      <point x="283" y="443" type="curve" smooth="yes"/>
      <point x="283" y="500"/>
      <point x="212" y="540"/>
      <point x="212" y="589" type="curve" smooth="yes"/>
      <point x="212" y="606"/>
      <point x="221" y="620"/>
      <point x="238" y="634" type="curve"/>
    </contour>
    <contour>
      <point x="479" y="268" type="line"/>
      <point x="482" y="208" type="line"/>
      <point x="271" y="293" type="line"/>
      <point x="271" y="309" type="line"/>
    </contour>
    <contour>
      <point x="479" y="358" type="line"/>
      <point x="479" y="272" type="line"/>
      <point x="335" y="418" type="line"/>
      <point x="328" y="459" type="line"/>
    </contour>
    <contour>
      <point x="849" y="131"/>
      <point x="814" y="118"/>
      <point x="814" y="81" type="curve" smooth="yes"/>
      <point x="814" y="52"/>
      <point x="830" y="20"/>
      <point x="897" y="-6" type="curve" smooth="yes"/>
      <point x="902" y="-9"/>
      <point x="980" y="-29"/>
      <point x="998" y="-34" type="curve" smooth="yes"/>
      <point x="1030" y="-40"/>
      <point x="1096" y="-6"/>
      <point x="1096" y="22" type="curve" smooth="yes"/>
      <point x="1096" y="29"/>
      <point x="1086" y="40"/>
      <point x="1078" y="47" type="curve"/>
      <point x="1016" y="69" type="line"/>
      <point x="1007" y="60"/>
      <point x="1002" y="56"/>
      <point x="996" y="51" type="curve"/>
      <point x="982" y="51"/>
      <point x="965" y="60"/>
      <point x="932" y="69" type="curve" smooth="yes"/>
      <point x="911" y="75"/>
      <point x="898" y="85"/>
      <point x="898" y="92" type="curve" smooth="yes"/>
      <point x="898" y="103"/>
      <point x="902" y="111"/>
      <point x="914" y="116" type="curve"/>
      <point x="908" y="131" type="line"/>
    </contour>
    <contour>
      <point x="903" y="196" type="line"/>
      <point x="911" y="153"/>
      <point x="942" y="135"/>
      <point x="978" y="121" type="curve" smooth="yes"/>
      <point x="1012" y="107"/>
      <point x="1047" y="92"/>
      <point x="1081" y="78" type="curve" smooth="yes"/>
      <point x="1121" y="62"/>
      <point x="1171" y="77"/>
      <point x="1197" y="102" type="curve" smooth="yes"/>
      <point x="1212" y="117"/>
      <point x="1223" y="132"/>
      <point x="1223" y="147" type="curve" smooth="yes"/>
      <point x="1223" y="156"/>
      <point x="1225" y="153"/>
      <point x="1204" y="169" type="curve"/>
      <point x="1141" y="177" type="line"/>
      <point x="1140" y="162"/>
      <point x="1135" y="153"/>
      <point x="1130" y="148" type="curve"/>
      <point x="1085" y="159"/>
      <point x="1047" y="180"/>
      <point x="1002" y="191" type="curve" smooth="yes"/>
      <point x="986" y="195"/>
      <point x="980" y="218"/>
      <point x="978" y="232" type="curve"/>
    </contour>
    <contour>
      <point x="1250" y="308"/>
      <point x="1244" y="294"/>
      <point x="1235" y="280" type="curve"/>
      <point x="1199" y="284"/>
      <point x="1132" y="293"/>
      <point x="1087" y="294" type="curve"/>
      <point x="1073" y="297"/>
      <point x="1069" y="300"/>
      <point x="1063" y="316" type="curve"/>
      <point x="1011" y="266" type="line"/>
      <point x="1011" y="251"/>
      <point x="1035" y="240"/>
      <point x="1078" y="231" type="curve" smooth="yes"/>
      <point x="1091" y="231"/>
      <point x="1155" y="212"/>
      <point x="1211" y="196" type="curve" smooth="yes"/>
      <point x="1253" y="184"/>
      <point x="1301" y="214"/>
      <point x="1319" y="232" type="curve"/>
      <point x="1329" y="248"/>
      <point x="1331" y="260"/>
      <point x="1331" y="276" type="curve" smooth="yes"/>
      <point x="1331" y="294"/>
      <point x="1332" y="298"/>
      <point x="1305" y="316" type="curve"/>
      <point x="1250" y="323" type="line"/>
    </contour>
    <contour>
      <point x="1181" y="548"/>
      <point x="1209" y="519"/>
      <point x="1222" y="509" type="curve"/>
      <point x="1287" y="496"/>
      <point x="1393" y="489"/>
      <point x="1414" y="486" type="curve" smooth="yes"/>
      <point x="1477" y="478"/>
      <point x="1628" y="463"/>
      <point x="1628" y="433" type="curve" smooth="yes"/>
      <point x="1628" y="416"/>
      <point x="1626" y="419"/>
      <point x="1587" y="419" type="curve" smooth="yes"/>
      <point x="1535" y="419"/>
      <point x="1468" y="431"/>
      <point x="1396" y="435" type="curve" smooth="yes"/>
      <point x="1342" y="438"/>
      <point x="1337" y="367"/>
      <point x="1306" y="350" type="curve"/>
      <point x="1331" y="349"/>
      <point x="1502" y="340"/>
      <point x="1574" y="340" type="curve" smooth="yes"/>
      <point x="1692" y="340"/>
      <point x="1717" y="365"/>
      <point x="1717" y="394" type="curve" smooth="yes"/>
      <point x="1717" y="474"/>
      <point x="1637" y="504"/>
      <point x="1419" y="544" type="curve" smooth="yes"/>
      <point x="1397" y="547"/>
      <point x="1211" y="563"/>
      <point x="1160" y="567" type="curve"/>
    </contour>
  </outline>
</glyph>
<glyph name=".notdef" format="1">
  <advance width="1396"/>
  <outline>
    <contour>
      <point x="1336" y="384" type="line"/>
      <point x="698" y="-220" type="line"/>
      <point x="60" y="384" type="line"/>
      <point x="698" y="986" type="line"/>
    </contour>
    <contour>
      <point x="681" y="683"/>
      <point x="647" y="682"/>
      <point x="612" y="675" type="curve"/>
      <point x="513" y="598" type="line"/>
      <point x="543" y="560" type="line"/>
      <point x="595" y="590"/>
      <point x="628" y="598"/>
      <point x="650" y="598" type="curve" smooth="yes"/>
      <point x="710" y="598"/>
      <point x="774" y="548"/>
      <point x="774" y="499" type="curve" smooth="yes"/>
      <point x="774" y="455"/>
      <point x="636" y="409"/>
      <point x="634" y="337" type="curve" smooth="yes"/>
      <point x="633" y="309"/>
      <point x="645" y="286"/>
      <point x="664" y="263" type="curve"/>
      <point x="769" y="315" type="line"/>
      <point x="769" y="346" type="line"/>
      <point x="754" y="363"/>
      <point x="746" y="376"/>
      <point x="747" y="393" type="curve" smooth="yes"/>
      <point x="749" y="437"/>
      <point x="887" y="484"/>
      <point x="887" y="555" type="curve" smooth="yes"/>
      <point x="885" y="620"/>
      <point x="769" y="683"/>
      <point x="708" y="683" type="curve" smooth="yes"/>
    </contour>
    <contour>
      <point x="665" y="202"/>
      <point x="614" y="163"/>
      <point x="614" y="114" type="curve" smooth="yes"/>
      <point x="614" y="71"/>
      <point x="643" y="37"/>
      <point x="683" y="37" type="curve" smooth="yes"/>
      <point x="722" y="37"/>
      <point x="773" y="76"/>
      <point x="773" y="125" type="curve" smooth="yes"/>
      <point x="773" y="168"/>
      <point x="745" y="202"/>
      <point x="704" y="202" type="curve" smooth="yes"/>
    </contour>
  </outline>
</glyph>
<glyph name="ampersand.case" format="1">
  <advance width="954"/>
  <outline>
    <contour>
      <point x="373" y="806"/>
      <point x="185" y="676"/>
      <point x="185" y="513" type="curve" smooth="yes"/>
      <point x="185" y="368"/>
      <point x="366" y="177"/>
      <point x="640" y="11" type="curve"/>
      <point x="650" y="-19" type="line"/>
      <point x="909" y="1" type="line"/>
      <point x="949" y="81" type="line"/>
      <point x="715" y="171" type="line"/>
      <point x="912" y="50" type="line"/>
      <point x="583" y="266"/>
      <point x="401" y="405"/>
      <point x="401" y="561" type="curve" smooth="yes"/>
      <point x="401" y="640"/>
      <point x="420" y="682"/>
      <point x="454" y="682" type="curve" smooth="yes"/>
      <point x="480" y="682"/>
      <point x="508" y="637"/>
      <point x="508" y="612" type="curve" smooth="yes"/>
      <point x="508" y="549"/>
      <point x="436" y="502"/>
      <point x="360" y="448" type="curve"/>
      <point x="386" y="359" type="line"/>
      <point x="521" y="449"/>
      <point x="711" y="536"/>
      <point x="711" y="668" type="curve" smooth="yes"/>
      <point x="711" y="736"/>
      <point x="579" y="806"/>
      <point x="512" y="806" type="curve" smooth="yes"/>
    </contour>
    <contour>
      <point x="633" y="464" type="line"/>
      <point x="593" y="384" type="line"/>
      <point x="760" y="306" type="line"/>
      <point x="761" y="359" type="line"/>
      <point x="696" y="232"/>
      <point x="538" y="94"/>
      <point x="397" y="94" type="curve" smooth="yes"/>
      <point x="314" y="94"/>
      <point x="275" y="154"/>
      <point x="275" y="228" type="curve" smooth="yes"/>
      <point x="275" y="281"/>
      <point x="298" y="315"/>
      <point x="330" y="349" type="curve"/>
      <point x="310" y="428" type="line"/>
      <point x="172" y="366"/>
      <point x="40" y="294"/>
      <point x="40" y="171" type="curve" smooth="yes"/>
      <point x="40" y="70"/>
      <point x="141" y="-10"/>
      <point x="309" y="-10" type="curve" smooth="yes"/>
      <point x="616" y="-10"/>
      <point x="777" y="183"/>
      <point x="922" y="393" type="curve"/>
      <point x="922" y="464" type="line"/>
    </contour>
  </outline>
</glyph>
<glyph name="exclamdown.case" format="1">
  <advance width="332"/>
  <outline>
    <contour>
      <point x="95" y="489" type="line"/>
      <point x="31" y="-10" type="line"/>
      <point x="109" y="-10" type="line"/>
      <point x="302" y="68" type="line"/>
      <point x="302" y="139" type="line"/>
      <point x="225" y="489" type="line"/>
    </contour>
    <component base="period" yOffset="586"/>
  </outline>
</glyph>
<glyph name="f_f_h.liga" format="1">
  <advance width="1597"/>
  <outline>
    <contour>
      <point x="1299" y="553"/>
      <point x="1276" y="550"/>
      <point x="1259" y="545" type="curve"/>
      <point x="1122" y="435" type="line"/>
      <point x="1152" y="362" type="line"/>
      <point x="1187" y="382"/>
      <point x="1221" y="388"/>
      <point x="1246" y="388" type="curve" smooth="yes"/>
      <point x="1288" y="388"/>
      <point x="1302" y="366"/>
      <point x="1302" y="309" type="curve" smooth="yes"/>
      <point x="1302" y="0" type="line"/>
      <point x="1502" y="0" type="line"/>
      <point x="1502" y="399" type="line" smooth="yes"/>
      <point x="1502" y="493"/>
      <point x="1433" y="553"/>
      <point x="1324" y="553" type="curve" smooth="yes"/>
    </contour>
    <contour>
      <point x="1313" y="71" type="line"/>
      <point x="1313" y="0" type="line"/>
      <point x="1552" y="0" type="line"/>
      <point x="1592" y="80" type="line"/>
      <point x="1319" y="164" type="line"/>
    </contour>
    <component base="f_f_l.liga"/>
  </outline>
</glyph>
<glyph name="f_f_i.liga" format="1">
  <advance width="1257"/>
  <outline>
    <contour>
      <point x="315" y="853"/>
      <point x="124" y="722"/>
      <point x="124" y="554" type="curve" smooth="yes"/>
      <point x="124" y="0" type="line"/>
      <point x="324" y="0" type="line"/>
      <point x="324" y="626" type="line" smooth="yes"/>
      <point x="324" y="689"/>
      <point x="358" y="723"/>
      <point x="410" y="723" type="curve" smooth="yes"/>
      <point x="470" y="723"/>
      <point x="532" y="677"/>
      <point x="570" y="602" type="curve"/>
      <point x="678" y="796" type="line"/>
      <point x="636" y="824"/>
      <point x="525" y="853"/>
      <point x="454" y="853" type="curve" smooth="yes"/>
    </contour>
    <contour>
      <point x="25" y="513" type="line"/>
      <point x="25" y="432" type="line"/>
      <point x="485" y="432" type="line"/>
      <point x="485" y="513" type="line"/>
    </contour>
    <contour>
      <point x="35" y="71" type="line"/>
      <point x="35" y="0" type="line"/>
      <point x="444" y="0" type="line"/>
      <point x="484" y="80" type="line"/>
      <point x="141" y="164" type="line"/>
    </contour>
    <contour>
      <point x="722" y="883"/>
      <point x="543" y="752"/>
      <point x="543" y="584" type="curve" smooth="yes"/>
      <point x="543" y="0" type="line"/>
      <point x="743" y="0" type="line"/>
      <point x="743" y="656" type="line" smooth="yes"/>
      <point x="743" y="719"/>
      <point x="769" y="753"/>
      <point x="809" y="753" type="curve" smooth="yes"/>
      <point x="864" y="753"/>
      <point x="887" y="742"/>
      <point x="922" y="697" type="curve" smooth="yes"/>
      <point x="952" y="659"/>
      <point x="985" y="635"/>
      <point x="1028" y="635" type="curve" smooth="yes"/>
      <point x="1093" y="635"/>
      <point x="1178" y="690"/>
      <point x="1178" y="757" type="curve" smooth="yes"/>
      <point x="1178" y="799"/>
      <point x="1155" y="836"/>
      <point x="1117" y="854" type="curve" smooth="yes"/>
      <point x="1071" y="876"/>
      <point x="937" y="883"/>
      <point x="853" y="883" type="curve" smooth="yes"/>
    </contour>
    <contour>
      <point x="444" y="513" type="line"/>
      <point x="444" y="432" type="line"/>
      <point x="1034" y="432" type="line"/>
      <point x="1034" y="513" type="line"/>
    </contour>
    <contour>
      <point x="620" y="71" type="line"/>
      <point x="620" y="0" type="line"/>
      <point x="863" y="0" type="line"/>
      <point x="903" y="80" type="line"/>
      <point x="560" y="164" type="line"/>
    </contour>
    <contour>
      <point x="962" y="0" type="line"/>
      <point x="1162" y="0" type="line"/>
      <point x="1162" y="562" type="line"/>
      <point x="962" y="450" type="line"/>
    </contour>
    <contour>
      <point x="1034" y="71" type="line"/>
      <point x="1034" y="0" type="line"/>
      <point x="1212" y="0" type="line"/>
      <point x="1252" y="80" type="line"/>
      <point x="979" y="164" type="line"/>
    </contour>
    <contour>
      <point x="1084" y="562" type="line"/>
      <point x="873" y="508" type="line"/>
      <point x="873" y="437" type="line"/>
      <point x="1125" y="237" type="line"/>
      <point x="1162" y="562" type="line"/>
    </contour>
    <contour>
      <point x="1212" y="0" type="move" name="ogonek"/>
    </contour>
  </outline>
</glyph>
<glyph name="f_f_l.liga" format="1">
  <advance width="1257"/>
  <outline>
    <contour>
      <point x="315" y="853"/>
      <point x="124" y="722"/>
      <point x="124" y="554" type="curve" smooth="yes"/>
      <point x="124" y="0" type="line"/>
      <point x="324" y="0" type="line"/>
      <point x="324" y="626" type="line" smooth="yes"/>
      <point x="324" y="689"/>
      <point x="358" y="723"/>
      <point x="410" y="723" type="curve" smooth="yes"/>
      <point x="470" y="723"/>
      <point x="532" y="677"/>
      <point x="570" y="602" type="curve"/>
      <point x="678" y="796" type="line"/>
      <point x="636" y="824"/>
      <point x="525" y="853"/>
      <point x="454" y="853" type="curve" smooth="yes"/>
    </contour>
    <contour>
      <point x="25" y="513" type="line"/>
      <point x="25" y="432" type="line"/>
      <point x="485" y="432" type="line"/>
      <point x="485" y="513" type="line"/>
    </contour>
    <contour>
      <point x="35" y="71" type="line"/>
      <point x="35" y="0" type="line"/>
      <point x="444" y="0" type="line"/>
      <point x="484" y="80" type="line"/>
      <point x="141" y="164" type="line"/>
    </contour>
    <contour>
      <point x="722" y="883"/>
      <point x="543" y="752"/>
      <point x="543" y="584" type="curve" smooth="yes"/>
      <point x="543" y="0" type="line"/>
      <point x="743" y="0" type="line"/>
      <point x="743" y="656" type="line" smooth="yes"/>
      <point x="743" y="719"/>
      <point x="769" y="753"/>
      <point x="809" y="753" type="curve" smooth="yes"/>
      <point x="869" y="753"/>
      <point x="931" y="715"/>
      <point x="969" y="652" type="curve"/>
      <point x="1047" y="652" type="line"/>
      <point x="1104" y="873" type="line"/>
      <point x="1057" y="878"/>
      <point x="933" y="883"/>
      <point x="853" y="883" type="curve" smooth="yes"/>
    </contour>
    <contour>
      <point x="444" y="513" type="line"/>
      <point x="444" y="432" type="line"/>
      <point x="904" y="432" type="line"/>
      <point x="904" y="513" type="line"/>
    </contour>
    <contour>
      <point x="600" y="71" type="line"/>
      <point x="600" y="0" type="line"/>
      <point x="863" y="0" type="line"/>
      <point x="903" y="80" type="line"/>
      <point x="560" y="164" type="line"/>
    </contour>
    <contour>
      <point x="1104" y="873" type="line"/>
      <point x="962" y="779" type="line"/>
      <point x="962" y="0" type="line"/>
      <point x="1162" y="0" type="line"/>
      <point x="1162" y="873" type="line"/>
    </contour>
    <contour>
      <point x="1034" y="71" type="line"/>
      <point x="1034" y="0" type="line"/>
      <point x="1212" y="0" type="line"/>
      <point x="1252" y="80" type="line"/>
      <point x="979" y="164" type="line"/>
    </contour>
    <contour>
      <point x="1202" y="543" type="move" name="topright"/>
    </contour>
    <contour>
      <point x="1077" y="0" type="move" name="bottom"/>
    </contour>
  </outline>
</glyph>
<glyph name="f_igrave.liga" format="1">
  <advance width="838"/>
  <outline>
    <contour>
      <point x="434" y="883" type="line"/>
      <point x="303" y="883"/>
      <point x="124" y="752"/>
      <point x="124" y="584" type="curve" smooth="yes"/>
      <point x="124" y="0" type="line"/>
      <point x="324" y="0" type="line"/>
      <point x="324" y="656" type="line" smooth="yes"/>
      <point x="324" y="719"/>
      <point x="350" y="753"/>
      <point x="390" y="753" type="curve" smooth="yes"/>
      <point x="446" y="753"/>
      <point x="487" y="744"/>
      <point x="661" y="665" type="curve"/>
      <point x="729" y="696" type="line"/>
      <point x="622" y="892" type="line"/>
    </contour>
    <contour>
      <point x="25" y="513" type="line"/>
      <point x="25" y="432" type="line"/>
      <point x="566" y="432" type="line"/>
      <point x="566" y="513" type="line"/>
    </contour>
    <contour>
      <point x="35" y="71" type="line"/>
      <point x="35" y="0" type="line"/>
      <point x="444" y="0" type="line"/>
      <point x="484" y="80" type="line"/>
      <point x="141" y="164" type="line"/>
    </contour>
    <contour>
      <point x="584" y="71" type="line"/>
      <point x="584" y="0" type="line"/>
      <point x="793" y="0" type="line"/>
      <point x="833" y="80" type="line"/>
      <point x="560" y="164" type="line"/>
    </contour>
    <contour>
      <point x="543" y="0" type="line"/>
      <point x="743" y="0" type="line"/>
      <point x="743" y="562" type="line"/>
      <point x="543" y="450" type="line"/>
    </contour>
    <contour>
      <point x="665" y="562" type="line"/>
      <point x="454" y="508" type="line"/>
      <point x="454" y="437" type="line"/>
      <point x="706" y="237" type="line"/>
      <point x="743" y="562" type="line"/>
    </contour>
  </outline>
</glyph>
<glyph name="five.numr" format="1">
  <advance width="520"/>
  <outline>
    <contour>
      <point x="54" y="547" type="line"/>
      <point x="251" y="498"/>
      <point x="284" y="471"/>
      <point x="284" y="427" type="curve" smooth="yes"/>
      <point x="284" y="378"/>
      <point x="245" y="352"/>
      <point x="34" y="302" type="curve"/>
      <point x="54" y="230" type="line"/>
      <point x="242" y="274"/>
      <point x="460" y="334"/>
      <point x="460" y="460" type="curve" smooth="yes"/>
      <point x="460" y="547"/>
      <point x="392" y="601"/>
      <point x="108" y="670" type="curve"/>
    </contour>
    <contour>
      <point x="317" y="773" type="line"/>
      <point x="397" y="823" type="line"/>
      <point x="117" y="823" type="line"/>
      <point x="54" y="547" type="line"/>
      <point x="135" y="552" type="line"/>
      <point x="184" y="795" type="line"/>
      <point x="109" y="682" type="line"/>
      <point x="353" y="682" type="line"/>
      <point x="439" y="670" type="line"/>
      <point x="439" y="873" type="line"/>
      <point x="373" y="887" type="line"/>
    </contour>
  </outline>
</glyph>
<glyph name="longs_k.liga" format="1">
  <advance width="1198"/>
  <outline>
    <contour>
      <point x="1166" y="472" type="line"/>
      <point x="1166" y="543" type="line"/>
      <point x="847" y="543" type="line"/>
      <point x="807" y="463" type="line"/>
      <point x="974" y="385" type="line"/>
      <point x="1056" y="486" type="line"/>
      <point x="776" y="270" type="line"/>
      <point x="924" y="0" type="line"/>
      <point x="1153" y="0" type="line"/>
      <point x="1193" y="80" type="line"/>
      <point x="1000" y="154" type="line"/>
      <point x="1136" y="43" type="line"/>
      <point x="962" y="340" type="line"/>
      <point x="946" y="296" type="line"/>
    </contour>
    <component base="longs_l.liga"/>
    <contour>
      <point x="844" y="0" type="move" name="bottom"/>
    </contour>
  </outline>
</glyph>
<glyph name="longs_longs.liga" format="1">
  <advance width="937"/>
  <outline>
    <contour>
      <point x="315" y="853"/>
      <point x="124" y="722"/>
      <point x="124" y="554" type="curve" smooth="yes"/>
      <point x="124" y="0" type="line"/>
      <point x="324" y="0" type="line"/>
      <point x="324" y="626" type="line" smooth="yes"/>
      <point x="324" y="689"/>
      <point x="358" y="723"/>
      <point x="410" y="723" type="curve" smooth="yes"/>
      <point x="470" y="723"/>
      <point x="532" y="677"/>
      <point x="570" y="602" type="curve"/>
      <point x="678" y="796" type="line"/>
      <point x="636" y="824"/>
      <point x="525" y="853"/>
      <point x="454" y="853" type="curve" smooth="yes"/>
    </contour>
    <contour>
      <point x="35" y="71" type="line"/>
      <point x="35" y="0" type="line"/>
      <point x="444" y="0" type="line"/>
      <point x="484" y="80" type="line"/>
      <point x="141" y="164" type="line"/>
    </contour>
    <contour>
      <point x="584" y="71" type="line"/>
      <point x="584" y="0" type="line"/>
      <point x="863" y="0" type="line"/>
      <point x="903" y="80" type="line"/>
      <point x="560" y="164" type="line"/>
    </contour>
    <contour>
      <point x="25" y="513" type="line"/>
      <point x="25" y="432" type="line"/>
      <point x="232" y="432" type="line"/>
      <point x="232" y="513" type="line"/>
    </contour>
    <contour>
      <point x="444" y="513" type="line"/>
      <point x="444" y="432" type="line"/>
      <point x="646" y="432" type="line"/>
      <point x="646" y="513" type="line"/>
    </contour>
    <contour>
      <point x="722" y="883"/>
      <point x="543" y="752"/>
      <point x="543" y="584" type="curve" smooth="yes"/>
      <point x="543" y="0" type="line"/>
      <point x="743" y="0" type="line"/>
      <point x="743" y="656" type="line" smooth="yes"/>
      <point x="743" y="719"/>
      <point x="769" y="753"/>
      <point x="809" y="753" type="curve" smooth="yes"/>
      <point x="857" y="753"/>
      <point x="907" y="715"/>
      <point x="939" y="652" type="curve"/>
      <point x="1017" y="652" type="line"/>
      <point x="1017" y="846" type="line"/>
      <point x="987" y="864"/>
      <point x="906" y="883"/>
      <point x="853" y="883" type="curve" smooth="yes"/>
    </contour>
  </outline>
</glyph>
<glyph name="questiondown.case" format="1">
  <advance width="462"/>
  <outline>
    <contour>
      <point x="95" y="436" type="line"/>
      <point x="95" y="365" type="line"/>
      <point x="131" y="355"/>
      <point x="157" y="342"/>
      <point x="157" y="328" type="curve" smooth="yes"/>
      <point x="157" y="282"/>
      <point x="-10" y="228"/>
      <point x="-10" y="148" type="curve" smooth="yes"/>
      <point x="-10" y="81"/>
      <point x="124" y="-10"/>
      <point x="239" y="-10" type="curve" smooth="yes"/>
      <point x="269" y="-10"/>
      <point x="306" y="-9"/>
      <point x="345" y="-2" type="curve"/>
      <point x="482" y="108" type="line"/>
      <point x="452" y="176" type="line"/>
      <point x="389" y="153"/>
      <point x="344" y="145"/>
      <point x="317" y="145" type="curve" smooth="yes"/>
      <point x="271" y="145"/>
      <point x="216" y="185"/>
      <point x="216" y="212" type="curve" smooth="yes"/>
      <point x="216" y="265"/>
      <point x="373" y="321"/>
      <point x="373" y="406" type="curve" smooth="yes"/>
      <point x="373" y="459"/>
      <point x="307" y="497"/>
      <point x="236" y="529" type="curve"/>
    </contour>
    <component base="period" xOffset="76" yOffset="586"/>
  </outline>
</glyph>
<glyph name="rupeeIndian.deva" format="1">
  <advance width="730"/>
  <outline>
    <contour>
      <point x="442" y="127"/>
      <point x="546" y="213"/>
      <point x="546" y="360" type="curve" smooth="yes"/>
      <point x="546" y="474"/>
      <point x="483" y="612"/>
      <point x="351" y="687" type="curve"/>
      <point x="130" y="678" type="line"/>
      <point x="279" y="658"/>
      <point x="340" y="540"/>
      <point x="340" y="440" type="curve" smooth="yes"/>
      <point x="340" y="410"/>
      <point x="335" y="382"/>
      <point x="325" y="358" type="curve"/>
      <point x="427" y="376" type="line"/>
      <point x="344" y="407"/>
      <point x="268" y="422"/>
      <point x="209" y="422" type="curve" smooth="yes"/>
      <point x="126" y="422"/>
      <point x="75" y="393"/>
      <point x="75" y="342" type="curve" smooth="yes"/>
      <point x="75" y="248"/>
      <point x="245" y="127"/>
      <point x="352" y="127" type="curve" smooth="yes"/>
    </contour>
    <contour>
      <point x="662" y="26" type="line"/>
      <point x="281" y="228" type="line"/>
      <point x="231" y="163" type="line"/>
      <point x="612" y="-39" type="line"/>
    </contour>
    <contour>
      <point x="740" y="474" type="line"/>
      <point x="740" y="552" type="line"/>
      <point x="657" y="595" type="line"/>
      <point x="-30" y="595" type="line"/>
      <point x="-30" y="517" type="line"/>
      <point x="53" y="474" type="line"/>
    </contour>
    <contour>
      <point x="740" y="665" type="line"/>
      <point x="740" y="743" type="line"/>
      <point x="657" y="786" type="line"/>
      <point x="-30" y="786" type="line"/>
      <point x="-30" y="708" type="line"/>
      <point x="53" y="665" type="line"/>
    </contour>
  </outline>
</glyph>
<glyph name="seven.numr" format="1">
  <advance width="540"/>
  <outline>
    <contour>
      <point x="60" y="633" type="line"/>
      <point x="130" y="613" type="line"/>
      <point x="186" y="733" type="line"/>
      <point x="102" y="683" type="line"/>
      <point x="439" y="683" type="line"/>
      <point x="440" y="760" type="line"/>
      <point x="101" y="255" type="line"/>
      <point x="186" y="230" type="line"/>
      <point x="530" y="745" type="line"/>
      <point x="530" y="823" type="line"/>
      <point x="150" y="823" type="line"/>
      <point x="60" y="836" type="line"/>
    </contour>
  </outline>
</glyph>
<glyph name="six.numr" format="1">
  <advance width="599"/>
  <outline>
    <contour>
      <point x="120" y="891"/>
      <point x="44" y="773"/>
      <point x="44" y="628" type="curve" smooth="yes"/>
      <point x="44" y="502"/>
      <point x="143" y="408"/>
      <point x="289" y="408" type="curve" smooth="yes"/>
      <point x="427" y="408"/>
      <point x="575" y="516"/>
      <point x="575" y="617" type="curve" smooth="yes"/>
      <point x="575" y="734"/>
      <point x="461" y="818"/>
      <point x="333" y="818" type="curve"/>
      <point x="283" y="748" type="line"/>
      <point x="341" y="724"/>
      <point x="402" y="671"/>
      <point x="402" y="584" type="curve" smooth="yes"/>
      <point x="402" y="531"/>
      <point x="379" y="505"/>
      <point x="335" y="505" type="curve" smooth="yes"/>
      <point x="255" y="505"/>
      <point x="217" y="575"/>
      <point x="217" y="661" type="curve" smooth="yes"/>
      <point x="217" y="763"/>
      <point x="291" y="858"/>
      <point x="501" y="966" type="curve"/>
      <point x="466" y="1033" type="line"/>
    </contour>
  </outline>
</glyph>
